<svg xmlns="http://www.w3.org/2000/svg" viewBox="0 0 600 600" width="600" height="600">
<defs><clipPath id="c"><circle cx="300" cy="300" r="296"/></clipPath></defs>
<circle cx="300" cy="300" r="298" fill="#ffffff"/>
<g clip-path="url(#c)">
<rect x="0" y="0" width="600" height="600" fill="#eef2f7"/>
<g transform="translate(0.000000,600.000000) scale(0.100000,-0.100000)" fill="#cdd7e6" stroke="none"><path d="M0 5040 c0 -528 2 -960 3 -960 2 0 18 7 36 16 17 9 38 13 46 11 7 -3
16 0 19 8 2 7 17 15 33 17 19 2 32 12 41 31 7 15 20 27 28 27 8 0 17 7 20 15
4 10 20 15 44 15 22 0 42 5 45 10 3 6 16 10 28 10 12 0 28 4 35 8 15 10 23 47
15 67 -9 25 -23 16 -23 -15 0 -32 -11 -38 -28 -17 -25 30 -18 49 23 62 73 23
118 51 122 76 5 30 11 35 25 21 7 -7 20 -12 31 -12 10 0 15 -4 12 -10 -3 -5
-1 -10 4 -10 6 0 11 18 11 39 0 22 4 42 9 45 5 3 32 7 60 8 42 2 51 6 53 23 2
15 12 21 35 23 19 2 39 12 47 24 13 18 21 20 60 14 55 -9 65 -36 13 -36 -27 0
-34 -5 -42 -27 -14 -39 -7 -86 10 -79 20 7 29 -12 14 -30 -10 -12 -10 -17 1
-27 10 -10 12 -9 7 6 -4 9 -2 17 4 17 17 0 0 -103 -19 -117 -14 -12 -14 -14 0
-25 9 -8 18 -37 22 -72 8 -69 10 -73 30 -57 12 10 17 9 25 -7 5 -10 29 -25 51
-32 23 -8 45 -21 48 -29 9 -24 64 -66 85 -66 13 0 23 -13 33 -40 7 -22 14 -41
14 -42 0 -2 -14 -3 -30 -3 -40 0 -47 -21 -19 -59 19 -26 30 -31 63 -31 29 0
37 -3 27 -9 -12 -8 -12 -12 -2 -25 17 -20 34 -10 28 15 -6 22 1 24 27 4 14
-11 16 -18 8 -27 -5 -7 -12 -26 -14 -43 -2 -25 -7 -30 -28 -27 -14 1 -30 -4
-37 -14 -6 -8 -20 -14 -30 -12 -14 3 -17 12 -16 42 3 40 -12 70 -28 60 -15 -9
-39 -75 -39 -107 0 -60 78 -127 148 -127 l30 0 -1 -133 c-1 -120 0 -135 21
-168 13 -22 22 -52 22 -77 0 -28 7 -49 24 -69 13 -15 26 -38 30 -50 9 -28 81
-93 104 -93 9 0 36 -10 60 -22 33 -18 43 -30 48 -56 4 -19 13 -36 20 -39 18
-7 18 -17 -2 -58 -13 -29 -14 -38 -2 -62 14 -30 55 -44 62 -21 3 7 7 29 10 48
4 19 10 42 16 50 17 27 21 3 6 -41 -24 -76 -27 -100 -15 -115 18 -22 -8 -17
-31 6 -24 24 -48 26 -57 4 -10 -26 16 -83 66 -149 26 -33 57 -77 70 -98 l23
-37 -24 -48 c-52 -107 -19 -235 80 -303 l52 -37 -42 -24 c-39 -22 -66 -35
-153 -72 -33 -14 -222 -109 -325 -163 -36 -19 -72 -41 -81 -49 -8 -8 -20 -14
-26 -14 -6 0 -31 -16 -56 -35 -25 -19 -50 -35 -56 -35 -5 0 -14 -6 -18 -14 -4
-7 -24 -24 -44 -37 -20 -13 -60 -40 -90 -60 -30 -20 -83 -64 -118 -98 -35 -33
-67 -61 -70 -61 -3 0 -35 -28 -71 -61 -252 -238 -279 -261 -320 -274 -14 -4
-37 -16 -52 -26 -14 -11 -31 -19 -38 -19 -38 0 -186 -171 -196 -227 -12 -61
10 -183 53 -301 9 -23 13 -45 10 -48 -3 -3 -27 -11 -54 -18 l-48 -12 -3 -172
-2 -172 1192 0 1192 0 -45 48 c-57 59 -109 132 -140 197 -29 60 -91 156 -113
174 -20 17 -108 18 -169 2 -35 -10 -63 -27 -103 -67 -31 -30 -60 -54 -66 -54
-6 0 -41 -32 -79 -71 -53 -54 -71 -66 -75 -54 -4 9 2 25 11 35 11 12 13 20 7
20 -15 0 -16 27 -1 36 6 3 15 1 19 -7 13 -21 42 9 38 40 -2 20 -8 26 -25 25
-25 -1 -30 22 -14 54 15 29 31 87 31 111 0 12 9 39 20 61 11 22 20 50 20 63 0
13 8 35 18 48 11 13 22 50 26 82 4 37 16 72 33 98 15 24 28 57 29 79 1 32 19
81 55 152 5 10 9 26 9 35 0 10 7 31 15 47 8 15 15 36 15 45 1 22 37 68 46 58
5 -4 9 -46 10 -93 1 -63 5 -89 17 -102 10 -10 17 -29 17 -42 0 -13 6 -31 14
-39 8 -9 26 -38 41 -66 15 -27 35 -59 45 -70 25 -29 42 -64 35 -75 -3 -5 2
-13 11 -18 16 -9 56 -74 106 -172 12 -25 35 -60 50 -78 16 -18 28 -44 28 -57
0 -13 4 -26 9 -30 5 -3 21 -30 35 -60 13 -30 36 -69 50 -87 13 -18 36 -63 51
-101 15 -37 31 -70 36 -73 5 -3 9 -20 9 -38 0 -17 5 -37 12 -44 15 -15 168
-17 168 -2 0 6 -11 10 -25 10 -26 0 -30 7 -17 25 11 15 65 15 82 0 12 -10 23
-8 60 11 32 17 39 24 24 24 -21 0 -38 22 -27 34 4 3 20 6 36 6 26 0 29 -3 25
-25 -3 -14 -1 -28 4 -31 5 -3 6 -14 3 -25 -10 -31 5 -41 25 -17 11 15 15 27 9
34 -5 6 -6 14 -2 18 4 3 -2 12 -12 20 -16 11 -16 17 -7 46 7 18 9 36 6 41 -3
5 1 9 9 9 8 0 17 -6 20 -14 4 -9 14 -12 26 -9 25 6 28 45 6 63 -11 9 -13 16
-5 24 5 5 10 18 10 28 0 13 8 18 25 18 18 0 25 5 25 20 0 11 -11 27 -25 36
-31 20 -31 34 0 57 28 20 32 15 45 -54 10 -50 9 -54 -17 -81 -19 -20 -27 -39
-28 -68 0 -22 -8 -49 -17 -59 -25 -29 -30 -57 -13 -71 8 -7 12 -16 10 -21 -3
-4 -3 -19 0 -31 6 -21 12 -24 70 -26 36 -1 64 2 63 6 -3 13 14 62 22 62 13 0
20 -43 8 -57 -8 -10 -4 -13 22 -13 28 0 31 2 20 15 -10 12 -9 15 4 15 9 0 19
-7 22 -15 5 -12 32 -15 159 -15 l153 0 0 65 c0 49 6 75 22 103 13 20 29 60 37
87 8 28 23 59 33 70 10 11 20 29 24 40 3 11 74 88 157 170 83 83 165 170 182
195 17 25 43 60 59 78 15 18 28 37 28 42 0 13 75 124 95 140 8 7 15 18 15 25
0 7 7 18 15 25 46 38 127 194 169 324 5 13 12 17 30 12 27 -7 44 10 28 26 -12
12 -6 35 16 60 12 14 12 21 3 32 -8 9 -8 16 -2 20 22 14 45 -137 37 -247 -8
-115 -25 -181 -54 -207 -13 -12 -22 -33 -22 -49 0 -15 -13 -46 -28 -67 -16
-22 -32 -51 -35 -64 -3 -14 -12 -53 -20 -87 -8 -35 -19 -69 -24 -75 -10 -12
-16 -36 -28 -110 -7 -41 -24 -106 -36 -133 -4 -11 -10 -36 -12 -55 -3 -19 -8
-46 -12 -59 -10 -29 12 -26 29 4 6 11 17 25 25 31 8 6 15 26 17 45 4 60 51
199 72 212 6 4 12 23 12 41 0 22 8 40 24 56 14 12 28 35 31 50 3 15 14 35 24
45 11 9 17 24 14 36 -4 12 3 26 18 38 19 15 24 29 24 68 0 40 3 49 20 51 24 4
75 74 75 102 0 24 44 38 65 20 20 -16 55 -114 55 -153 0 -65 18 -101 66 -131
25 -16 50 -40 56 -55 6 -14 17 -39 24 -56 7 -16 22 -58 33 -93 20 -59 30 -83
53 -122 4 -8 12 -25 17 -37 6 -11 14 -24 20 -27 6 -4 10 -30 10 -59 -1 -29 4
-63 9 -77 5 -14 7 -51 4 -83 -4 -52 -2 -60 22 -82 45 -42 30 -153 -20 -143
-10 2 -25 15 -31 29 -7 15 -25 35 -39 44 l-27 17 7 -32 c3 -18 6 -48 6 -66 l0
-34 560 0 560 0 0 539 0 539 -71 54 c-39 29 -107 74 -150 99 -44 26 -85 53
-92 62 -7 8 -37 28 -67 43 -58 31 -76 43 -170 114 -32 25 -75 56 -95 70 -20
14 -46 33 -58 43 -47 38 -125 87 -195 123 -40 20 -75 40 -77 45 -3 4 -19 10
-35 14 -16 4 -33 12 -37 18 -5 7 -44 30 -88 51 -96 46 -224 119 -225 126 0 4
15 12 34 18 40 15 54 41 32 58 -22 16 -20 34 5 34 52 0 99 66 99 140 0 53 22
96 60 115 17 9 30 20 30 25 0 10 10 22 55 73 14 15 20 36 20 67 0 54 -19 62
-61 27 -43 -36 -71 -42 -79 -17 -7 23 -25 27 -25 5 0 -8 -9 -15 -20 -15 -27 0
-25 17 4 43 23 21 24 23 8 49 -24 41 -52 37 -52 -7 0 -24 -5 -35 -15 -35 -17
0 -20 36 -4 46 7 4 9 23 5 51 -5 39 -4 43 12 34 12 -7 24 -4 42 11 22 18 24
26 23 92 -2 73 -2 73 30 87 20 9 33 22 35 37 2 13 11 26 20 29 9 3 28 15 41
27 l24 21 -7 -30 c-4 -16 -15 -48 -26 -70 -22 -49 -24 -123 -5 -190 8 -27 17
-61 20 -75 10 -50 21 -57 51 -30 24 23 26 30 21 80 -3 30 -12 69 -21 85 -21
39 -20 55 2 55 24 1 102 74 102 97 0 10 12 30 28 43 15 14 36 37 47 51 11 14
29 30 40 36 11 6 27 33 35 59 14 40 22 50 51 59 46 16 50 42 7 53 -25 6 -33
14 -35 34 -2 25 1 26 45 26 26 0 57 0 70 1 27 1 41 30 21 42 -8 4 -15 22 -14
41 0 26 4 34 22 36 12 2 24 9 26 16 4 11 -11 13 -79 8 -46 -2 -84 -2 -84 1 0
3 14 21 31 39 29 31 30 37 25 90 -3 32 -1 60 4 63 5 3 7 18 4 33 -4 24 2 32
50 66 35 25 52 44 49 53 -3 8 8 42 24 76 17 34 36 82 43 107 12 44 17 58 38
111 5 14 6 32 2 40 -4 8 -10 31 -13 52 -4 28 -2 40 9 44 21 8 17 18 -11 31
-17 8 -25 20 -25 37 0 17 -5 25 -18 25 -17 0 -44 41 -57 88 -4 15 -1 24 10 28
21 8 33 -5 15 -16 -12 -7 -11 -10 4 -16 14 -5 15 -9 4 -16 -13 -9 7 -6 55 9
13 4 16 1 11 -11 -5 -14 -2 -16 19 -11 14 4 28 2 31 -4 4 -6 15 -11 24 -11 19
0 46 -56 32 -65 -5 -3 -10 1 -12 9 -3 13 -6 13 -22 1 -27 -21 -10 -37 31 -29
26 5 34 4 29 -5 -4 -6 -14 -11 -22 -11 -21 0 -17 -16 9 -28 l22 -11 -22 0
c-29 -1 -29 -12 -2 -29 11 -7 18 -19 15 -27 -2 -7 2 -16 10 -19 28 -11 133 -6
140 6 4 6 2 14 -4 16 -25 8 -12 32 17 32 27 0 30 -3 33 -37 2 -30 8 -39 28
-44 25 -7 25 -7 -4 -8 -28 -1 -28 -2 -22 -43 7 -47 37 -78 67 -71 16 5 19 -1
20 -41 1 -25 2 -52 3 -58 1 -7 -8 -13 -19 -13 -11 0 -19 6 -17 13 1 8 -2 11
-8 7 -5 -3 -10 -20 -10 -37 0 -21 6 -31 20 -35 15 -4 20 -14 20 -39 0 -21 6
-37 17 -43 9 -5 22 -26 29 -48 9 -30 12 223 13 1165 l1 1202 -3000 0 -3000 0
0 -960z m4261 604 c11 -13 9 -23 -11 -60 -14 -24 -30 -44 -37 -44 -7 0 -16 -8
-22 -17 -9 -17 -12 -17 -38 -2 -15 9 -34 14 -41 12 -7 -3 -21 2 -30 11 -9 9
-29 26 -44 37 -16 11 -28 25 -28 30 0 5 29 9 64 9 43 0 67 5 76 14 10 13 33
20 81 25 9 0 22 -6 30 -15z m309 -124 c22 -12 63 -97 54 -112 -3 -5 -12 -7
-20 -4 -7 3 -18 -4 -24 -14 -13 -24 0 -54 30 -70 11 -6 20 -16 20 -23 0 -16
-47 -37 -81 -37 -59 0 -108 120 -52 128 32 5 37 32 12 66 l-22 29 27 24 c31
26 31 26 56 13z m289 -21 c17 -6 31 -15 31 -20 0 -5 12 -15 28 -21 15 -7 43
-25 63 -40 27 -20 39 -24 47 -16 8 8 13 7 18 -5 17 -44 -30 -54 -85 -18 -38
24 -134 61 -160 61 -76 0 -126 54 -58 63 63 8 84 7 116 -4z m-435 -85 c11 -28
7 -31 -39 -31 -52 0 -57 10 -17 31 35 20 48 20 56 0z m404 -38 c17 -9 32 -13
32 -10 0 4 8 0 18 -9 10 -9 42 -22 72 -28 61 -13 100 -34 100 -55 0 -19 -9
-18 -55 11 -22 13 -47 25 -56 25 -9 0 -29 10 -44 22 -23 18 -30 19 -47 9 -17
-11 -24 -9 -42 7 -11 11 -31 25 -44 31 -19 10 -21 15 -11 27 10 12 14 13 28 0
9 -7 31 -21 49 -30z m-1219 -140 c9 -11 10 -20 1 -35 -9 -18 -7 -22 12 -30 13
-5 33 -21 45 -35 14 -15 33 -26 48 -26 14 0 25 -5 25 -10 0 -6 23 -24 50 -41
28 -17 50 -36 50 -43 0 -9 9 -12 25 -8 20 3 27 -1 35 -22 5 -15 17 -26 28 -26
10 0 22 -3 26 -7 4 -5 35 -6 68 -5 43 3 70 11 95 28 20 13 42 24 49 24 7 0 24
12 37 26 21 22 28 24 45 15 11 -6 34 -11 51 -11 24 0 34 -7 46 -30 9 -16 22
-30 30 -30 21 0 55 -49 55 -81 0 -16 8 -33 19 -41 10 -7 22 -24 26 -38 4 -14
19 -50 33 -80 14 -30 27 -74 30 -98 2 -23 9 -45 13 -48 5 -3 9 -17 9 -32 0
-15 9 -71 20 -125 11 -55 20 -134 20 -178 0 -70 -2 -79 -18 -79 -27 0 -31 8
-19 41 10 24 8 35 -8 66 -28 52 -81 103 -144 138 -29 17 -68 42 -85 57 -22 18
-39 25 -54 21 -12 -3 -22 -1 -22 5 0 6 -10 14 -22 18 -12 3 -29 14 -37 24 -21
24 -88 38 -148 33 -44 -5 -52 -2 -66 18 l-16 23 -19 -22 c-20 -23 -47 -29 -57
-12 -9 15 -45 12 -51 -5 -7 -16 -59 -21 -69 -6 -3 5 5 12 17 14 20 4 19 4 -4
6 -21 1 -34 11 -55 44 -27 43 -53 68 -64 61 -3 -2 -4 7 -2 21 5 21 0 25 -37
35 -30 8 -46 8 -53 1 -19 -19 -36 -12 -52 20 -12 22 -22 29 -38 27 -19 -3 -22
-8 -19 -40 3 -46 -14 -50 -46 -13 -12 14 -26 25 -32 25 -5 0 -10 11 -10 24 0
17 -9 29 -27 38 -14 7 -28 19 -31 26 -5 15 22 16 48 0 36 -23 35 4 -3 38 -45
42 -47 59 -6 73 26 9 29 13 19 31 -9 17 -7 22 12 29 16 6 28 4 40 -6 14 -12
21 -13 31 -4 11 9 17 8 27 -4 7 -8 16 -12 20 -10 10 6 1 76 -11 90 -15 15 -10
55 5 55 21 0 30 19 16 35 -16 20 -5 45 19 45 11 0 23 5 26 10 9 15 41 12 54
-4z m1306 -270 c34 -22 91 -29 108 -11 23 22 35 19 57 -17 26 -43 25 -51 -4
-46 -19 4 -26 0 -30 -19 -4 -12 -11 -23 -18 -23 -6 0 -16 -8 -23 -17 -12 -17
-15 -17 -49 -1 -24 12 -38 26 -42 45 -4 15 -16 38 -27 50 -11 12 -17 29 -14
37 8 20 17 20 42 2z m-3635 -148 c-11 -10 -20 -23 -20 -28 0 -5 -8 -14 -18
-19 -17 -9 -19 -6 -18 23 2 48 21 68 52 54 24 -11 24 -11 4 -30z m-78 -37 c0
-20 5 -30 17 -34 15 -4 17 -15 13 -94 -4 -85 -3 -93 22 -129 14 -21 26 -46 26
-55 0 -12 7 -15 24 -12 13 3 27 0 30 -6 11 -17 -22 -71 -44 -71 -11 0 -24 -9
-30 -20 -6 -11 -19 -20 -30 -20 -10 0 -20 -4 -22 -8 -3 -7 -83 -52 -93 -52 -3
0 -5 8 -5 18 -1 21 -59 87 -68 77 -4 -4 -1 -10 6 -12 7 -3 12 -23 11 -56 -1
-41 -2 -47 -8 -26 -18 57 -30 69 -57 59 -50 -19 -60 -4 -21 33 13 12 31 44 40
71 16 48 16 50 -3 63 -11 8 -20 25 -20 40 0 17 -7 27 -22 31 -17 5 -10 8 27
12 60 6 75 3 75 -18 0 -11 6 -8 23 10 18 20 22 33 19 71 -4 44 -6 47 -32 47
-41 0 -60 10 -60 31 0 23 0 23 36 4 56 -29 78 -17 76 42 -1 30 1 33 22 27 13
-3 27 -1 31 6 10 17 18 4 17 -29z m-354 -88 c25 -54 14 -74 -44 -79 -32 -3
-33 -2 -32 32 1 29 5 34 25 34 16 0 23 6 23 20 0 28 13 25 28 -7z m60 -38 c15
-32 15 -38 2 -30 -5 3 -10 -3 -10 -14 0 -11 5 -23 10 -26 15 -9 12 -25 -4 -25
-8 0 -18 19 -25 44 -16 66 3 103 27 51z m3871 -44 c28 -27 29 -30 12 -45 -15
-14 -19 -14 -39 0 -14 10 -22 26 -22 45 0 37 11 37 49 0z m434 -151 c9 0 17
-7 17 -16 0 -9 -7 -14 -18 -12 -18 3 -22 -1 -22 -22 0 -5 17 -17 38 -26 27
-13 32 -18 19 -21 -24 -6 -107 35 -107 53 0 8 5 14 11 14 6 0 8 9 4 21 -6 19
-4 21 16 16 13 -4 32 -7 42 -7z m-4218 -170 c12 -13 15 -27 11 -46 -6 -22 -2
-32 21 -50 26 -21 26 -22 5 -17 -12 3 -27 14 -33 24 -5 11 -16 19 -24 19 -19
0 -42 43 -26 48 6 2 11 12 11 23 0 24 12 24 35 -1z m320 -69 c6 -10 -11 -24
-33 -27 -8 -2 -22 -10 -31 -18 -16 -14 -20 -14 -30 -2 -9 11 -5 18 21 34 36
22 64 27 73 13z m4018 -39 c8 -21 13 -51 10 -67 -3 -25 -2 -27 7 -12 13 20 30
23 30 4 0 -16 -30 -79 -40 -87 -4 -3 -7 -16 -6 -29 1 -24 -2 -25 -56 -27 -32
-1 -58 2 -58 6 0 5 11 30 24 57 13 26 32 81 42 121 10 39 21 72 25 72 4 0 14
-17 22 -38z m-1943 -31 c0 -6 -4 -13 -10 -16 -19 -12 -11 -44 12 -47 19 -2 24
-12 31 -53 4 -27 12 -54 17 -59 5 -5 3 -20 -5 -35 -12 -24 -11 -29 11 -55 16
-18 30 -26 41 -22 20 8 43 -11 43 -35 0 -10 9 -23 20 -29 11 -6 17 -16 14 -25
-3 -8 4 -34 15 -58 16 -33 32 -49 64 -63 23 -10 63 -40 90 -67 43 -44 47 -53
47 -96 0 -74 -34 -92 -88 -46 -16 13 -32 22 -34 19 -9 -8 -78 29 -78 42 0 28
-71 42 -94 18 -16 -15 -18 -15 -35 0 -10 9 -22 16 -28 16 -6 0 -13 5 -15 10
-6 18 -62 0 -98 -31 -34 -30 -49 -26 -50 12 0 10 -16 21 -41 29 -32 11 -45 22
-56 48 l-14 34 -22 -21 -23 -20 -2 26 c-3 39 -16 46 -42 25 -20 -16 -21 -21
-11 -41 12 -21 11 -22 -21 -19 -26 2 -32 7 -30 22 2 10 0 25 -4 35 -5 13 -8
11 -14 -9 -5 -22 -11 -25 -43 -22 -32 2 -39 -1 -47 -23 -6 -15 -10 -39 -10
-55 0 -31 -14 -40 -66 -40 -24 0 -34 5 -34 15 0 22 85 111 120 125 19 8 30 20
30 32 0 34 87 145 144 181 22 15 26 24 22 43 -5 18 0 27 18 39 14 9 28 29 31
45 3 16 13 34 21 41 8 6 14 17 14 23 0 35 105 88 145 72 9 -3 21 4 31 19 16
25 34 33 34 16z m1164 -286 c11 -8 30 -15 42 -15 14 0 24 -8 28 -22 4 -17 8
-20 17 -11 11 11 49 6 49 -6 0 -4 -6 -13 -12 -20 -11 -10 -7 -16 15 -33 16
-11 39 -38 53 -59 21 -33 22 -42 12 -59 -11 -18 -10 -23 8 -38 26 -22 44 -64
44 -105 0 -18 4 -38 8 -45 9 -13 -8 -185 -28 -302 -6 -36 -14 -86 -17 -112 -3
-31 -10 -48 -18 -48 -20 0 -45 -40 -45 -70 0 -14 -6 -35 -14 -46 -15 -21 -17
-114 -3 -114 4 0 16 6 27 12 16 10 23 10 36 -3 15 -15 13 -18 -17 -33 -41 -21
-45 -20 -81 6 l-31 21 -17 -23 c-13 -17 -19 -19 -22 -9 -4 11 -11 11 -38 -5
l-33 -19 6 31 c7 36 -7 51 -22 25 -8 -15 -12 -16 -23 -5 -11 11 -10 16 5 27
17 12 47 90 47 122 0 18 -36 17 -44 -2 -7 -20 -65 -20 -72 0 -4 8 -1 22 6 30
11 13 9 22 -6 50 -10 19 -25 35 -34 35 -8 0 -20 11 -26 25 -12 24 -12 24 35
19 45 -6 46 -5 25 13 -12 10 -24 25 -27 35 -4 11 -17 16 -42 16 -46 0 -53 7
-30 31 17 19 16 20 -9 27 -17 4 -34 20 -46 44 -17 34 -18 39 -4 51 14 11 14
13 0 21 -23 13 -34 2 -29 -25 3 -17 -1 -26 -13 -31 -27 -10 -41 10 -21 32 20
22 10 35 -35 46 -19 4 -30 16 -39 41 -7 19 -16 35 -20 35 -4 0 -17 16 -29 35
-12 20 -30 35 -40 35 -10 0 -31 11 -47 24 -15 13 -38 26 -50 30 -13 4 -23 11
-23 16 0 4 -11 11 -25 14 -32 8 -33 41 -3 65 16 14 19 24 14 44 -9 36 -23 34
-32 -5 -6 -30 -8 -31 -18 -14 -6 10 -19 26 -28 35 -25 22 -24 51 2 44 13 -3
22 1 26 11 4 12 13 15 28 10 17 -6 78 -10 211 -16 81 -3 255 38 255 60 0 12
78 62 98 62 10 1 31 7 47 15 39 17 46 17 69 0z m729 -65 c17 0 13 -7 -23 -37
-58 -51 -70 -57 -82 -45 -19 19 43 97 69 88 8 -3 24 -6 36 -6z m-2706 -42 c-3
-7 -13 -31 -22 -53 -11 -26 -12 -36 -4 -27 13 12 51 16 62 6 10 -11 -27 -44
-50 -44 -13 0 -23 -4 -23 -10 0 -5 5 -10 10 -10 6 0 10 -4 10 -10 0 -5 -12
-10 -27 -10 -14 0 -23 -3 -20 -7 4 -3 2 -12 -4 -19 -9 -11 -5 -16 15 -24 25
-9 38 -50 16 -50 -5 0 -10 -13 -10 -30 0 -20 -4 -28 -13 -24 -8 3 -14 19 -14
36 0 19 -7 36 -19 45 -20 15 -32 6 -55 -42 -10 -20 -10 -20 5 -1 18 22 21 21
30 -11 6 -19 2 -25 -18 -33 -14 -5 -30 -19 -37 -32 -12 -22 -13 -21 -24 22
-12 50 -40 63 -40 18 0 -30 -6 -38 -32 -42 -12 -2 -17 -10 -15 -24 3 -19 -1
-20 -35 -15 -21 3 -42 11 -47 17 -14 20 -67 -40 -60 -68 5 -21 2 -22 -25 -18
-34 5 -33 8 -51 -88 -6 -36 -14 -67 -16 -69 -2 -3 -10 4 -17 13 -11 15 -17 17
-35 7 -25 -14 -29 -43 -7 -61 8 -7 15 -15 15 -19 0 -7 -63 -36 -97 -46 -21 -6
-28 -21 -24 -52 2 -18 -20 -27 -30 -12 -5 8 -6 26 -3 41 4 22 1 27 -18 30 -19
2 -23 9 -21 33 5 79 4 356 -2 364 -3 6 8 8 30 4 31 -5 35 -3 35 16 0 17 5 22
23 21 43 -4 48 -1 41 25 -8 31 2 32 27 3 18 -22 19 -22 33 -4 11 13 12 25 5
43 -8 21 -6 26 11 30 11 3 17 9 14 14 -3 5 -1 9 3 9 5 0 13 -14 18 -32 6 -17
16 -34 24 -36 10 -3 12 4 6 37 -5 32 -4 41 7 41 8 0 18 -4 24 -9 5 -5 21 -7
35 -4 25 5 39 22 53 65 8 25 36 11 36 -17 0 -13 3 -26 8 -28 4 -3 7 19 8 49 1
64 7 73 34 49 14 -13 17 -22 10 -30 -7 -9 -7 -22 1 -41 7 -16 11 -38 10 -49
-2 -19 -2 -19 15 -3 16 16 18 15 36 -7 17 -22 16 -55 -3 -55 -5 0 -9 -5 -9
-11 0 -6 10 -9 23 -7 18 2 21 8 19 35 -2 17 2 34 7 38 19 11 12 26 -19 36 -16
6 -30 16 -30 22 0 18 31 46 46 40 8 -3 17 2 20 11 6 16 8 16 25 0 23 -20 24
-34 5 -34 -21 0 -24 -11 -14 -47 10 -39 35 -43 44 -8 3 14 10 25 15 25 15 0
10 27 -7 41 -15 12 -14 15 5 30 11 9 25 29 31 43 6 17 17 26 31 26 13 0 19 -5
16 -12z m-406 -28 c27 0 30 -3 27 -27 -3 -24 -8 -28 -38 -31 -30 -2 -37 2 -47
24 -14 31 -8 48 14 40 8 -3 28 -6 44 -6z m1583 -486 c9 -8 16 -23 16 -31 0 -9
8 -25 17 -35 14 -16 15 -22 4 -40 -9 -15 -10 -23 -2 -31 21 -21 11 -38 -35
-58 l-45 -20 -26 25 c-25 25 -26 29 -20 108 4 49 12 85 19 90 21 13 55 9 72
-8z m-250 -348 c28 -1 61 -8 74 -15 12 -6 30 -11 40 -10 61 9 138 -49 126 -95
-6 -27 -19 -32 -43 -17 -7 5 -32 3 -59 -5 -56 -17 -65 -17 -59 -1 3 8 1 20 -4
28 -7 12 -12 12 -29 1 -16 -10 -25 -10 -35 -2 -7 6 -32 10 -56 9 -73 -3 -322
12 -336 19 -7 4 -60 4 -118 -1 -59 -5 -109 -6 -113 -3 -9 10 11 24 43 30 17 3
46 10 65 16 19 5 52 10 73 10 21 0 52 7 69 16 22 11 61 17 124 18 51 1 96 5
100 9 5 4 26 5 48 1 22 -3 63 -7 90 -8z m806 -99 c8 0 31 3 50 7 19 3 29 4 23
0 -7 -3 -13 -17 -13 -30 0 -21 -3 -24 -27 -19 -27 6 -27 6 -9 -9 10 -8 24 -17
30 -19 6 -2 7 -8 3 -13 -4 -4 -21 -3 -37 3 -26 10 -32 9 -45 -10 -8 -12 -15
-29 -15 -38 0 -19 -44 -31 -59 -16 -15 15 -40 -10 -34 -33 5 -18 6 -18 30 -3
24 16 25 16 22 -3 -6 -28 -54 -31 -69 -4 -6 12 -8 29 -4 38 4 9 6 27 5 39 -1
11 3 24 8 28 6 3 11 14 11 25 0 22 25 33 49 21 25 -14 48 24 23 39 -13 8 -10
9 13 3 17 -4 37 -7 45 -6z m-603 -159 c12 -12 23 -14 33 -8 10 6 21 3 36 -11
14 -13 24 -17 29 -10 19 32 75 -9 75 -55 0 -33 22 -60 40 -49 5 3 10 18 10 32
0 25 0 26 20 8 25 -23 25 -32 1 -40 -28 -9 -36 -63 -11 -83 10 -10 22 -30 26
-47 6 -26 5 -28 -7 -13 -17 21 -69 13 -69 -10 0 -20 29 -52 47 -52 7 0 13 -11
13 -25 0 -14 -4 -25 -9 -25 -15 0 -23 -51 -10 -66 8 -10 6 -21 -10 -47 -23
-38 -27 -63 -9 -69 19 -7 -1 -28 -27 -28 -29 0 -41 -16 -25 -35 11 -13 6 -15
-28 -15 -31 0 -45 -6 -59 -23 -16 -21 -20 -22 -52 -11 -25 8 -40 9 -49 2 -9
-8 -22 -4 -47 13 -19 13 -36 29 -36 34 -1 6 -3 15 -4 20 -5 33 -19 55 -34 55
-10 0 -24 6 -30 14 -6 8 -22 11 -37 8 -23 -4 -25 -2 -19 17 5 16 1 29 -14 45
-13 13 -17 26 -12 35 5 7 6 21 4 31 -3 11 7 34 24 54 28 35 56 46 68 26 12
-19 22 -1 17 30 -4 27 -2 30 22 30 19 0 26 -5 26 -20 0 -11 7 -20 15 -20 31 0
9 31 -39 55 -12 6 -22 22 -24 37 -3 22 2 29 22 34 22 5 24 8 11 21 -13 13 -13
16 0 29 19 19 3 54 -25 54 -10 0 -32 12 -49 26 -19 15 -38 24 -47 20 -23 -9
-37 3 -24 19 8 9 21 10 52 4 31 -8 44 -6 57 5 29 26 130 29 158 4z M320 4180 c0 -61 25 -71 36 -15 7 42 0 65 -21 65 -11 0 -15 -12 -15
-50z M329 4108 c0 -1 -2 -11 -4 -21 -2 -10 -7 -26 -10 -35 -6 -15 -8 -14
-16 6 -7 19 -11 21 -27 11 -16 -10 -23 -8 -43 9 -24 24 -54 29 -64 12 -4 -7
-24 -8 -51 -4 -42 6 -44 5 -44 -20 0 -31 -24 -35 -52 -9 -17 15 -18 13 -18
-66 0 -56 3 -80 11 -76 12 8 38 -23 39 -46 0 -9 7 -22 15 -29 13 -11 15 -8 15
16 0 20 3 25 9 16 6 -10 10 -9 14 8 4 16 12 20 34 18 27 -3 28 -2 29 47 1 67
3 73 15 52 12 -21 27 -14 39 19 9 24 43 33 54 15 3 -5 22 -3 43 4 32 11 38 18
38 41 0 15 -6 29 -12 32 -7 2 -13 2 -14 0z M3864 528 c-34 -39 -54 -76 -54 -102 0 -14 -7 -29 -16 -34 -13 -7
-17 -26 -19 -80 -1 -50 -7 -78 -20 -98 -11 -16 -28 -44 -38 -63 -17 -30 -17
-35 -2 -51 8 -9 15 -25 14 -36 -7 -68 -17 -64 172 -64 165 0 171 1 166 19 -3
11 1 28 8 38 6 10 14 29 17 43 3 14 9 32 12 42 6 12 0 20 -21 30 l-28 13 -5
140 c-3 85 -10 149 -17 162 -36 61 -131 84 -169 41z M4140 315 c-16 -20 -25 -85 -11 -85 6 0 11 8 11 19 0 11 12 23 30 31
36 15 37 22 5 36 -19 9 -27 9 -35 -1z"/></g>
<g transform="translate(0.000000,600.000000) scale(0.100000,-0.100000)" fill="#5a6f92" stroke="none"><path d="M2172 5980 c-6 -11 -12 -24 -12 -29 0 -6 -11 -27 -25 -47 -14 -21
-25 -51 -25 -69 0 -32 -1 -33 -56 -40 -62 -7 -270 -8 -283 -1 -4 3 -27 0 -52
-5 -24 -6 -51 -12 -60 -14 -24 -5 -111 -52 -134 -72 -63 -57 -94 -104 -119
-183 -14 -46 -26 -100 -26 -121 0 -21 -4 -40 -9 -43 -11 -7 -61 50 -61 69 0 7
-7 18 -15 25 -8 7 -15 29 -15 49 0 20 -5 43 -10 51 -34 52 -33 -108 1 -164 22
-37 18 -80 -14 -143 -23 -45 -27 -48 -55 -35 -87 43 -109 52 -124 52 -10 0
-18 -6 -18 -14 0 -19 84 -95 124 -111 18 -8 55 -34 83 -59 38 -35 59 -46 83
-46 32 0 32 -1 26 -36 -5 -22 -3 -41 5 -50 9 -11 7 -20 -7 -41 -66 -98 -89
-138 -86 -150 2 -7 -7 -26 -19 -42 -18 -24 -21 -39 -17 -80 5 -48 29 -91 51
-91 6 0 7 20 3 50 -5 39 -2 58 14 90 26 50 40 51 40 3 0 -21 6 -49 13 -63 22
-42 28 -88 13 -102 -7 -8 -19 -38 -26 -68 -13 -59 -34 -100 -51 -100 -6 0 -27
-13 -47 -29 -20 -16 -47 -32 -59 -36 -39 -11 -25 -25 20 -19 23 3 60 2 82 -3
53 -11 60 -47 18 -92 -23 -25 -40 -32 -92 -40 -38 -6 -70 -7 -80 -1 -10 5 -31
8 -47 8 -25 -1 -61 14 -136 58 -27 16 -44 43 -57 89 -12 44 -27 72 -35 65 -2
-3 -6 -35 -7 -70 -4 -84 17 -124 86 -160 55 -29 72 -39 193 -117 67 -44 82
-58 82 -79 0 -26 -4 -29 -63 -39 -57 -9 -40 -29 31 -37 91 -10 98 -18 58 -65
-13 -16 -26 -39 -28 -52 -1 -13 -12 -29 -23 -35 -10 -6 -26 -19 -35 -30 -16
-18 -17 -18 -50 2 -36 23 -50 21 -50 -7 0 -29 41 -58 108 -78 l62 -18 -5 -75
c-11 -179 -6 -209 44 -264 18 -19 22 -30 14 -33 -18 -6 -16 -62 1 -69 8 -3 18
-18 21 -32 3 -15 22 -45 41 -66 26 -30 42 -39 67 -40 29 -1 57 -16 105 -56 6
-6 12 -21 12 -34 0 -13 7 -29 15 -36 17 -15 20 -51 4 -67 -13 -13 -8 -55 7
-60 6 -2 23 25 38 61 26 66 26 92 0 184 -5 18 -2 22 15 22 15 0 21 -6 21 -22
0 -12 10 -32 22 -45 13 -14 22 -38 24 -65 3 -49 15 -97 38 -150 20 -48 20 -68
-1 -83 -16 -12 -16 -14 0 -38 20 -31 14 -37 -41 -37 -29 0 -53 7 -69 20 -32
25 -55 26 -46 3 4 -10 33 -54 65 -97 80 -108 81 -109 59 -137 -10 -13 -25 -46
-34 -73 -16 -46 -16 -52 3 -109 27 -82 41 -101 100 -134 27 -15 50 -33 50 -38
0 -6 -21 -21 -47 -34 -27 -12 -55 -27 -63 -32 -8 -5 -22 -12 -30 -15 -71 -27
-135 -59 -360 -175 -91 -47 -232 -136 -265 -166 -11 -11 -58 -45 -105 -76 -47
-31 -116 -87 -155 -123 -38 -37 -85 -78 -104 -93 -19 -14 -79 -69 -135 -122
-142 -135 -170 -158 -208 -171 -18 -6 -45 -19 -60 -30 -14 -10 -32 -18 -40
-18 -17 0 -86 -69 -144 -145 l-46 -60 5 -80 c4 -74 19 -135 53 -228 8 -20 14
-41 14 -46 0 -11 -74 -41 -100 -41 -19 0 -20 -7 -20 -170 l0 -170 1180 0 c678
0 1180 4 1180 9 0 5 -10 16 -23 24 -28 18 -128 163 -157 227 -11 25 -37 70
-57 100 -33 47 -44 56 -82 63 -29 6 -52 5 -68 -2 -13 -6 -35 -11 -48 -11 -25
0 -55 -21 -116 -82 -21 -21 -42 -38 -46 -38 -5 0 -46 -38 -93 -85 -47 -47 -88
-85 -92 -85 -9 0 -4 114 5 140 3 8 10 35 17 60 6 25 16 61 21 80 6 19 15 56
20 81 5 25 18 63 29 84 11 22 20 52 20 67 0 15 7 31 16 36 11 6 20 31 25 71 5
34 20 83 34 109 14 26 25 60 25 77 0 16 10 48 23 70 22 39 31 66 61 172 15 55
74 153 91 153 6 0 9 -42 8 -115 -2 -103 0 -118 17 -135 11 -11 20 -29 20 -41
0 -12 11 -34 25 -51 14 -16 25 -36 25 -45 0 -13 34 -75 89 -163 9 -14 22 -36
28 -50 7 -14 22 -38 33 -55 11 -16 22 -37 26 -45 17 -42 50 -97 71 -117 13
-12 23 -30 23 -39 0 -21 46 -121 60 -129 6 -3 10 -14 10 -23 0 -9 16 -30 35
-45 25 -20 37 -38 41 -67 6 -38 28 -69 40 -57 3 3 -2 19 -10 36 -21 39 -20 41
7 41 33 0 40 10 21 31 -9 10 -17 36 -18 56 -1 32 2 38 22 41 17 3 22 10 22 32
0 16 -6 31 -12 34 -17 7 19 36 36 30 7 -3 19 2 26 11 18 22 39 18 52 -10 6
-14 15 -25 19 -25 15 0 17 29 3 40 -16 14 -19 40 -5 40 6 0 13 -4 16 -10 10
-16 35 -12 35 5 0 9 11 21 25 27 16 7 25 19 25 34 0 14 8 25 20 29 14 4 20 15
20 36 0 31 17 39 26 14 4 -10 13 -13 26 -9 13 4 25 -2 38 -19 27 -34 57 -40
81 -16 10 10 19 23 19 28 0 5 12 11 28 13 22 2 28 8 30 36 2 22 -1 32 -11 32
-7 0 -19 12 -26 26 -12 26 -11 26 23 20 26 -5 37 -3 43 9 6 10 20 14 43 12 27
-2 35 -8 40 -27 4 -18 14 -26 35 -30 47 -8 39 -39 -17 -68 -26 -14 -45 -28
-42 -33 8 -13 34 -11 34 2 0 7 7 8 18 4 9 -4 32 -7 51 -6 42 2 61 -14 61 -50
0 -16 5 -29 10 -29 6 0 15 -11 20 -24 6 -18 18 -26 41 -28 39 -4 49 -23 17
-32 -21 -6 -22 -7 -5 -20 16 -13 40 -13 82 -1 24 7 36 -1 55 -39 17 -33 40
-46 40 -22 0 8 21 34 46 58 26 24 67 65 93 92 25 27 76 78 113 113 36 36 87
95 113 133 25 38 50 72 55 75 6 4 10 14 10 23 0 9 25 48 55 85 30 38 55 74 55
82 0 7 12 23 26 34 14 11 36 35 49 53 29 39 85 154 85 174 0 25 -32 15 -64
-21 -18 -19 -37 -35 -43 -35 -6 0 -23 -14 -37 -31 -20 -23 -31 -29 -47 -24
-18 6 -21 4 -16 -9 4 -10 3 -14 -3 -11 -5 3 -19 -8 -31 -24 -31 -42 -46 -45
-66 -11 -9 17 -21 30 -25 30 -4 0 -13 -20 -19 -45 -12 -47 -18 -52 -37 -33
-20 20 -14 56 13 74 23 15 24 19 12 33 -13 14 -12 18 3 34 18 18 19 18 35 -7
16 -24 55 -37 55 -18 0 4 10 12 23 17 14 7 23 20 25 40 2 17 13 40 24 52 15
16 19 31 16 55 -8 48 7 78 36 78 27 0 37 18 29 49 -8 31 25 27 37 -4 10 -25
34 -33 45 -15 3 5 2 18 -4 28 -11 21 -4 35 24 46 19 8 19 8 -2 17 -30 11 -29
40 2 69 14 13 25 32 25 42 0 11 11 23 25 28 14 5 34 23 43 40 9 17 24 29 32
28 8 -1 21 1 27 5 9 6 13 -2 12 -30 0 -104 9 -221 20 -248 19 -46 7 -326 -15
-360 -19 -29 -9 -49 22 -43 15 3 19 13 19 48 0 53 9 70 33 63 10 -2 24 3 31
11 8 9 22 16 32 16 37 0 96 -118 109 -220 8 -63 10 -66 72 -125 59 -56 66 -66
93 -150 29 -92 91 -231 106 -241 5 -3 9 -22 8 -42 -1 -20 4 -56 10 -80 6 -23
9 -53 5 -66 -3 -14 5 -50 21 -90 35 -87 45 -173 21 -182 -29 -11 -80 10 -94
39 -17 36 -32 25 -32 -24 l0 -39 555 0 555 0 0 420 c0 285 -3 420 -10 420 -10
0 -22 8 -55 38 -8 7 -24 10 -40 6 -23 -6 -25 -3 -25 25 0 25 -4 31 -17 29 -11
-2 -23 9 -34 32 -9 19 -26 44 -38 54 -12 11 -21 26 -21 33 0 17 -24 12 -26 -5
-1 -7 -2 -19 -3 -27 -2 -24 -19 -18 -33 12 -10 21 -24 29 -56 36 -37 7 -41 11
-31 23 14 17 4 30 -26 36 -25 4 -31 31 -10 51 19 20 19 46 -1 54 -8 3 -20 17
-25 30 -13 35 -34 23 -35 -21 -1 -37 -9 -54 -20 -43 -9 9 -9 80 0 98 12 27
-20 51 -58 44 -38 -8 -61 13 -51 45 3 11 2 20 -3 20 -5 0 -14 11 -22 24 -7 14
-18 22 -26 19 -7 -2 -20 7 -29 21 -9 13 -26 26 -38 28 -16 2 -22 10 -22 30 -1
30 -53 84 -115 119 -45 25 -69 39 -102 61 -15 10 -34 18 -43 18 -8 0 -23 9
-32 20 -10 11 -21 20 -25 20 -5 0 -25 10 -46 23 -20 13 -57 31 -82 42 -25 10
-58 28 -75 40 -16 12 -45 30 -62 39 -41 21 -42 37 -1 61 18 10 27 20 20 23 -7
2 -12 17 -12 33 0 24 4 29 26 29 14 0 34 5 44 10 25 13 60 93 60 136 0 46 19
83 51 100 15 7 42 36 60 64 18 27 35 50 38 50 4 0 7 18 7 40 1 22 -3 40 -8 40
-5 0 -30 -16 -55 -35 -43 -33 -48 -34 -103 -28 l-57 6 -27 -57 c-31 -66 -92
-136 -119 -136 -16 0 -18 -5 -13 -26 5 -18 2 -32 -10 -45 -9 -10 -14 -25 -11
-32 4 -12 1 -12 -18 -3 -13 6 -26 22 -28 36 -6 30 3 89 14 96 12 7 11 71 -1
79 -5 3 -10 14 -10 25 0 19 -25 34 -42 24 -5 -4 -7 -19 -4 -35 4 -21 1 -31
-13 -38 -10 -6 -21 -24 -25 -42 -5 -26 -9 -30 -28 -26 -14 4 -29 0 -40 -10
-10 -9 -20 -14 -23 -12 -2 3 3 34 11 69 16 69 13 90 -11 90 -13 0 -15 -6 -10
-29 5 -23 2 -32 -13 -40 -22 -12 -42 3 -42 31 0 10 -10 20 -25 24 -14 3 -25
11 -25 17 0 6 -7 18 -16 28 -15 16 -14 19 11 32 l27 14 -32 13 c-28 12 -33 11
-52 -8 l-20 -20 21 -18 21 -18 -21 -22 c-17 -19 -19 -26 -9 -44 13 -23 -1 -52
-14 -31 -11 17 -26 13 -26 -7 0 -9 9 -23 21 -30 l21 -13 -21 -23 c-18 -19 -20
-27 -11 -52 6 -17 7 -48 2 -74 -6 -37 -12 -46 -32 -48 -13 -2 -30 -11 -36 -20
-11 -15 -16 -15 -34 -4 -18 11 -25 11 -43 -1 -32 -22 -67 -56 -67 -67 0 -5 -9
-12 -20 -15 -11 -3 -20 -13 -20 -20 0 -23 -20 -28 -39 -11 -24 22 -30 20 -41
-9 -6 -15 -27 -32 -56 -45 -39 -18 -53 -20 -87 -12 -50 13 -64 7 -72 -29 -7
-31 -25 -38 -44 -15 -6 7 -33 16 -59 19 -47 5 -112 34 -112 50 0 14 -24 7 -46
-14 l-23 -22 -32 32 c-22 23 -35 29 -42 22 -18 -18 -45 -13 -61 11 -13 18 -16
19 -16 5 0 -9 -4 -17 -10 -17 -5 0 -19 -9 -30 -20 -19 -19 -19 -19 -49 17 -30
36 -51 37 -51 2 0 -23 -45 -27 -54 -4 -3 8 -11 15 -18 14 -10 0 -10 -2 0 -6
17 -7 15 -23 -3 -23 -8 0 -15 9 -15 19 0 26 -14 30 -85 24 -67 -6 -87 6 -87
52 0 28 -8 31 -26 13 -9 -9 -18 -6 -40 15 -15 15 -32 27 -38 27 -5 0 -18 24
-29 53 -12 28 -26 51 -33 50 -7 -2 -18 -4 -24 -5 -9 -2 -12 7 -11 27 1 16 -4
37 -13 46 -11 12 -12 22 -4 43 15 41 12 84 -7 96 -10 6 -13 13 -8 16 11 4 11
106 0 124 -16 26 -27 8 -22 -33 4 -28 2 -48 -5 -55 -18 -18 -32 -14 -17 4 11
13 8 20 -20 46 -18 16 -31 37 -29 46 5 24 83 37 137 23 51 -14 78 -1 47 22
-14 10 -17 21 -11 45 8 40 21 48 44 28 21 -19 42 -20 60 -3 10 10 14 9 21 -3
26 -42 29 -45 41 -33 8 8 8 16 0 31 -15 28 2 36 24 12 21 -23 65 -27 65 -6 0
19 26 40 35 26 3 -5 19 -10 35 -10 16 0 31 -4 34 -9 9 -15 -16 -18 -46 -7 -34
13 -48 1 -22 -18 19 -14 18 -15 -5 -40 -32 -34 -23 -61 15 -44 22 10 28 10 38
-3 6 -9 25 -23 41 -32 l30 -15 -28 -11 c-27 -11 -27 -11 -11 -37 15 -22 23
-25 68 -23 41 3 52 0 54 -14 4 -20 13 -22 29 -6 8 8 17 2 34 -20 l23 -31 100
6 c110 7 130 16 131 61 0 25 4 29 39 33 22 3 41 11 44 17 2 7 -1 13 -7 13 -6
0 -11 12 -11 26 0 18 -12 39 -35 61 -33 32 -37 33 -126 37 -69 3 -94 7 -100
19 -6 9 -17 13 -29 10 -23 -6 -28 15 -5 23 31 12 16 33 -22 31 -37 -2 -38 -1
-41 33 -2 19 -4 48 -4 64 l-1 29 -91 -8 c-50 -4 -101 -7 -114 -6 -13 0 -30 -6
-38 -14 -19 -19 -28 -19 -45 1 -11 14 -9 19 11 35 32 24 89 52 115 55 11 1 40
7 65 13 25 6 61 11 81 11 19 0 44 7 55 15 14 10 47 14 122 15 81 0 104 3 108
15 5 12 10 12 27 3 12 -6 56 -15 97 -19 172 -18 265 -49 276 -94 16 -64 -46
-128 -75 -77 -7 13 -13 14 -21 5 -9 -8 -7 -16 8 -31 17 -17 32 -19 120 -18
l101 1 41 -40 c22 -21 40 -48 40 -58 0 -16 2 -17 15 -7 13 10 20 11 39 1 36
-20 71 -11 74 19 3 33 23 102 34 116 10 14 29 145 22 156 -3 5 13 16 35 25 36
14 41 20 41 47 0 18 -9 49 -20 71 -11 22 -20 48 -20 58 0 32 -18 54 -50 60
-24 5 -30 12 -30 32 0 17 -7 28 -23 34 -13 5 -29 16 -36 25 -7 9 -24 16 -37
16 -15 0 -24 6 -24 15 0 9 -6 18 -14 21 -8 3 -12 13 -9 25 6 21 -16 26 -34 8
-9 -9 -7 -21 8 -50 16 -32 17 -39 5 -39 -8 0 -19 8 -25 18 -7 13 -13 14 -21 6
-17 -17 16 -64 45 -64 25 0 60 -34 50 -49 -3 -6 -13 -11 -21 -11 -12 0 -15 -9
-12 -36 2 -30 -2 -38 -22 -49 -21 -11 -30 -11 -59 1 -18 8 -42 14 -53 14 -18
0 -19 -5 -14 -34 4 -18 4 -41 0 -50 -8 -20 -52 -21 -78 -1 -11 8 -30 15 -43
15 -14 0 -40 17 -64 41 l-42 42 23 17 c12 9 22 27 21 41 -1 87 -21 123 -72
134 -29 7 -39 30 -16 38 19 7 -7 30 -29 25 -13 -2 -18 -11 -16 -26 2 -14 -2
-22 -12 -22 -20 0 -31 20 -16 30 21 13 2 32 -21 20 -15 -8 -21 -7 -25 4 -11
28 7 36 75 36 71 0 96 -14 116 -65 5 -13 9 -15 12 -7 3 6 11 12 19 12 22 0 54
38 54 64 0 19 -12 31 -52 54 -72 40 -230 73 -244 51 -3 -6 -15 -8 -27 -5 -11
3 -30 0 -41 -6 -42 -23 -93 -20 -125 8 -18 15 -38 24 -47 20 -26 -10 -64 5
-64 25 0 10 -3 19 -7 20 -5 0 -25 2 -45 4 -26 3 -37 0 -35 -8 1 -7 -10 -12
-29 -12 -32 -1 -84 -28 -84 -45 0 -6 -22 -10 -49 -10 -28 0 -53 -4 -56 -10 -3
-5 -17 -10 -31 -10 -21 0 -24 4 -24 39 0 22 5 43 10 46 13 8 13 45 0 45 -17 0
-60 -51 -60 -71 0 -20 -66 -94 -84 -94 -5 0 -15 -18 -23 -40 -7 -22 -19 -44
-26 -50 -7 -5 -16 -18 -20 -27 -3 -10 -13 -18 -21 -18 -8 0 -19 -12 -25 -27
-5 -16 -28 -48 -51 -73 -36 -40 -42 -44 -60 -32 -18 11 -22 9 -31 -11 -6 -12
-22 -28 -37 -35 -21 -9 -28 -19 -30 -48 -1 -21 -7 -43 -13 -50 -6 -7 -9 -30
-7 -51 2 -31 7 -39 26 -41 30 -5 73 -69 66 -99 -4 -14 2 -36 15 -59 19 -32 20
-40 9 -70 -9 -25 -9 -39 0 -59 8 -17 9 -32 3 -43 -5 -10 -7 -30 -4 -45 6 -32
-12 -37 -23 -5 -12 39 -24 45 -60 28 -18 -8 -33 -21 -34 -27 0 -21 -16 -14
-28 12 -8 18 -18 24 -34 21 -22 -3 -27 -19 -17 -55 2 -7 -1 -15 -7 -18 -7 -2
-15 8 -18 23 -6 23 -11 26 -37 20 -35 -7 -69 8 -69 29 0 8 -13 21 -30 30 -16
9 -30 21 -30 28 0 7 -16 21 -35 31 -34 19 -36 19 -49 1 -13 -18 -14 -17 -27 6
-7 13 -12 30 -10 38 7 36 -11 82 -36 92 -20 7 -23 13 -15 21 18 18 15 35 -10
58 -20 18 -21 22 -6 36 14 15 14 21 -4 71 -18 51 -18 65 -7 170 16 155 4 343
-21 343 -8 0 -21 141 -13 153 3 4 11 3 19 -4 11 -9 15 -7 21 7 4 10 2 19 -4
21 -7 3 -8 16 -1 41 9 37 10 41 7 87 -2 35 7 41 27 20 17 -17 19 -16 35 3 9
12 29 24 44 28 20 5 25 11 22 25 -3 11 0 19 8 19 7 0 16 -15 19 -34 4 -19 13
-40 22 -46 12 -11 19 -9 39 10 21 20 28 22 50 12 34 -16 62 -15 68 1 4 8 11 5
24 -10 10 -12 43 -31 73 -43 46 -18 66 -20 124 -15 55 6 69 11 73 26 6 22 26
25 42 6 7 -9 30 -13 73 -11 35 2 67 3 72 4 5 0 1 9 -9 20 -25 28 -11 38 24 17
38 -22 68 -22 80 2 7 12 25 21 48 24 62 8 127 29 136 44 10 17 36 17 43 -1 3
-9 23 -14 60 -14 46 0 55 2 52 16 -2 12 -14 17 -38 18 -55 2 -60 3 -60 15 0 8
15 10 45 6 35 -5 47 -3 51 8 4 8 17 15 30 15 28 0 45 28 37 60 -4 15 -1 25 9
31 11 6 14 22 12 58 -2 38 1 48 11 45 19 -8 29 14 15 31 -10 12 -10 21 0 45
16 38 7 64 -20 55 -28 -9 -37 35 -15 69 18 28 30 32 40 16 3 -5 13 -10 22 -10
11 0 14 6 8 23 -4 12 -8 35 -8 52 -1 20 -9 33 -24 41 -13 6 -31 18 -41 27 -10
10 -23 17 -29 17 -6 0 -16 7 -23 15 -7 8 -17 12 -22 9 -5 -3 -16 4 -25 15 -16
24 -49 21 -68 -6 -9 -13 -16 -11 -48 7 -31 19 -53 22 -135 23 -202 1 -331 -4
-336 -12 -10 -16 -73 -22 -121 -11 -44 10 -50 9 -80 -14 -18 -14 -44 -28 -58
-31 -14 -4 -47 -29 -72 -56 -25 -27 -54 -53 -65 -59 -11 -6 -20 -17 -20 -24 0
-13 -46 -43 -54 -35 -10 9 29 109 44 114 10 3 23 24 30 46 8 22 22 46 33 54
13 9 17 20 12 34 -5 17 -2 21 14 21 28 0 36 19 15 36 -18 14 -16 14 14 9 26
-5 32 -3 32 11 0 10 8 26 17 36 13 14 14 21 5 30 -22 22 -14 57 17 73 20 10
31 24 33 42 2 22 10 29 41 36 31 8 39 15 44 38 6 32 18 38 27 13 12 -30 41
-11 47 31 l6 40 12 -32 c16 -42 48 -45 57 -5 10 47 13 52 29 52 8 0 15 -8 15
-17 1 -17 2 -17 15 1 9 11 20 16 31 12 15 -6 16 -1 11 38 -7 48 0 60 28 50 10
-4 15 -14 12 -25 -3 -10 2 -24 9 -30 13 -10 15 -6 13 27 -2 26 -9 45 -23 56
-25 20 -13 37 15 20 24 -15 56 -1 68 30 5 14 18 21 38 23 26 2 37 -5 68 -42
34 -41 39 -44 81 -41 34 2 44 7 44 20 0 22 63 63 119 78 23 6 40 14 37 18 -2
4 20 5 49 4 33 -2 63 2 82 11 20 11 34 12 46 6 11 -7 26 -5 46 6 34 17 67 20
76 5 17 -28 95 2 95 37 0 35 18 63 40 63 11 0 20 -4 20 -9 0 -5 16 -26 35 -47
19 -20 35 -41 35 -45 0 -5 6 -9 14 -9 8 0 21 -7 30 -15 9 -9 36 -15 74 -16 65
-2 89 -10 77 -29 -4 -7 -17 -9 -33 -5 -22 5 -24 4 -13 -9 16 -19 35 -20 61 -4
15 10 29 8 72 -9 29 -12 64 -25 78 -28 14 -4 32 -13 40 -20 32 -27 76 -44 91
-34 8 5 42 9 77 9 34 0 62 4 62 10 0 6 16 10 35 10 38 0 49 -9 115 -94 23 -29
43 -45 58 -45 19 -1 21 -5 16 -26 -4 -16 0 -35 11 -51 9 -15 19 -42 20 -61 2
-20 15 -58 28 -87 14 -28 30 -78 36 -111 7 -33 16 -80 22 -105 5 -25 14 -85
20 -135 5 -49 14 -115 19 -145 5 -30 14 -100 20 -155 8 -80 17 -114 44 -170
19 -38 37 -86 41 -105 4 -19 25 -71 46 -115 22 -44 44 -106 49 -138 5 -31 12
-62 16 -68 16 -27 1 -249 -26 -389 -14 -70 -20 -155 -11 -166 3 -5 12 -9 19
-9 6 0 11 -4 10 -10 -2 -5 -9 -9 -15 -9 -21 3 -15 -44 6 -56 28 -14 31 -13 31
12 0 12 14 33 32 48 30 25 31 29 22 71 -8 38 -13 45 -39 49 -35 6 -25 15 26
25 41 8 55 -4 64 -55 3 -19 13 -42 21 -51 12 -14 12 -21 -1 -55 -9 -21 -23
-52 -31 -67 -9 -16 -13 -38 -10 -50 3 -12 0 -37 -7 -55 -10 -30 -9 -39 16 -85
15 -29 27 -58 27 -65 0 -6 7 -12 15 -12 27 0 28 46 1 121 -32 88 -32 89 -3 89
23 0 71 43 107 96 37 53 104 130 119 135 9 4 22 28 30 54 9 31 21 50 37 57 30
14 31 26 1 33 -15 4 -26 18 -34 43 -14 45 -8 56 27 49 16 -4 36 0 49 9 34 24
26 37 -19 31 -45 -6 -47 -2 -23 32 15 22 15 25 -2 37 -10 7 -22 15 -27 16 -5
2 -6 16 -3 31 6 21 12 26 26 22 13 -5 19 -1 19 10 0 12 -6 15 -19 10 -14 -4
-21 0 -26 14 -9 30 5 48 20 27 7 -9 19 -14 29 -10 17 6 19 31 7 74 -9 34 12
92 39 106 37 20 70 53 70 72 0 10 5 23 12 30 9 9 9 12 1 12 -7 0 -15 -9 -18
-20 -8 -25 -35 -27 -35 -2 0 22 43 97 55 97 5 0 12 -11 15 -25 7 -31 15 -20
40 57 44 139 49 238 13 306 -26 51 -82 126 -116 157 l-32 28 28 13 c15 7 27
16 27 21 0 4 11 8 24 8 31 0 117 67 146 115 18 30 22 47 18 98 -2 38 -11 73
-22 90 -23 35 -28 30 -16 -14 6 -18 10 -58 10 -87 0 -49 -3 -56 -45 -101 -26
-27 -58 -51 -73 -54 -57 -10 -73 -16 -88 -32 -26 -25 -46 -14 -60 35 -13 44
-66 120 -63 90 3 -30 -1 -39 -21 -45 -27 -9 -25 -24 4 -35 23 -9 56 -46 56
-63 0 -5 -11 -6 -25 -3 -14 4 -25 2 -25 -4 0 -5 11 -10 23 -10 26 0 157 -120
157 -144 0 -7 7 -20 16 -27 28 -23 56 -101 56 -155 0 -61 -29 -154 -48 -154
-18 0 -18 38 -1 59 7 9 19 33 26 55 11 33 11 40 -2 53 -22 22 -34 10 -41 -41
-5 -31 -18 -57 -46 -89 -22 -24 -37 -47 -33 -50 10 -11 -19 -38 -35 -32 -8 3
-31 0 -53 -6 -48 -15 -74 1 -65 40 14 72 20 88 41 111 12 14 25 33 29 44 9 26
33 151 41 212 6 51 6 52 -26 63 -17 6 -38 11 -45 11 -7 0 -34 14 -59 31 -33
23 -43 35 -36 42 6 6 11 21 11 32 0 12 9 30 19 40 11 9 21 33 23 54 2 28 7 36
23 36 24 0 36 40 40 135 4 108 2 106 59 55 21 -19 41 -35 45 -35 4 0 18 -21
30 -47 25 -54 29 -123 11 -177 -14 -42 -10 -51 18 -42 27 9 32 27 38 121 5 73
3 82 -18 105 -29 31 -94 80 -106 80 -17 0 -83 74 -88 99 -11 52 -39 104 -64
119 -26 16 -99 91 -135 138 -11 14 -32 41 -47 59 -34 40 -34 43 -1 56 l27 10
-30 19 c-16 11 -38 20 -50 20 -11 0 -29 6 -39 14 -16 12 -22 12 -41 -1 -21
-13 -25 -12 -45 11 -13 15 -33 26 -48 26 -13 0 -32 6 -40 14 -11 10 -30 13
-63 9 -43 -5 -46 -7 -37 -25 6 -11 27 -29 47 -41 l36 -21 -43 -13 c-24 -7 -49
-17 -56 -23 -7 -6 -24 -9 -37 -6 -12 3 -35 7 -49 10 -20 4 -30 17 -44 51 -21
56 -53 73 -104 55 -30 -11 -36 -10 -54 8 -25 25 -12 46 33 56 37 7 48 31 26
55 -23 25 -20 46 9 59 35 16 65 15 71 -3 6 -16 31 -19 58 -9 24 9 19 29 -9 44
-15 8 -25 22 -25 36 0 25 -26 39 -44 24 -13 -10 -116 17 -116 31 0 11 63 17
87 8 20 -7 24 -4 34 33 11 42 4 90 -21 143 -6 11 -20 49 -33 85 -21 60 -25 65
-55 68 -38 4 -40 -7 -12 -69 11 -24 20 -55 20 -69 0 -14 11 -43 23 -66 30 -51
39 -84 24 -84 -20 1 -57 37 -57 56 0 33 -33 108 -66 149 -17 22 -37 50 -43 63
l-12 22 -947 0 c-1053 0 -970 5 -1006 -67 -9 -18 -25 -37 -36 -43 -35 -18 -24
25 16 70 l36 40 -38 0 c-28 0 -43 -6 -52 -20z m1641 -68 c9 -8 17 -24 17 -34
0 -17 -2 -18 -29 -3 -36 18 -45 31 -37 51 6 16 18 12 49 -14z m-96 -174 c-2
-7 -11 -13 -19 -13 -9 0 -26 -9 -38 -20 -18 -16 -23 -17 -31 -5 -6 11 -3 20
12 33 25 20 83 24 76 5z m-1937 -23 c10 -12 8 -17 -13 -26 -65 -30 -114 -152
-104 -261 7 -79 -10 -121 -55 -134 -45 -14 -69 -6 -117 39 -46 43 -47 46 -25
131 39 154 105 224 244 256 52 12 56 11 70 -5z m2498 -64 c22 -27 13 -56 -35
-108 -27 -28 -56 -62 -65 -76 -19 -28 -74 -43 -94 -26 -8 6 -11 21 -8 33 7 29
-11 75 -34 84 -24 9 -84 77 -75 85 3 4 11 3 18 -3 6 -5 43 -7 83 -3 57 5 75
10 83 24 5 11 18 19 28 19 11 0 22 7 25 16 6 15 10 14 34 -7 15 -13 33 -30 40
-38z m-2384 -21 c23 -8 24 -12 14 -40 -5 -17 -22 -42 -37 -55 -141 -128 -143
-129 -160 -97 -12 22 -3 102 14 122 7 8 16 24 19 36 12 39 91 57 150 34z
m3082 -507 c19 -20 37 -46 40 -57 14 -45 45 -76 75 -76 22 0 29 -5 29 -20 0
-11 -4 -20 -10 -20 -16 0 -12 -14 11 -39 15 -16 18 -25 10 -30 -6 -4 -9 -15
-5 -24 3 -9 -1 -30 -9 -46 -8 -16 -12 -41 -10 -55 6 -30 -3 -33 -28 -10 -13
12 -16 25 -12 45 5 25 2 29 -15 29 -12 0 -24 -4 -27 -10 -10 -16 -45 -12 -86
12 -22 12 -40 24 -40 27 -1 3 -3 15 -4 27 -1 12 -12 31 -24 43 -15 15 -21 33
-21 66 0 49 8 56 28 25 13 -21 42 -28 42 -10 0 20 29 9 48 -17 26 -36 39 -23
23 22 -7 19 -9 39 -6 45 3 5 -2 11 -12 11 -18 1 -24 0 -56 -8 -12 -4 -16 -1
-11 10 3 8 1 18 -5 22 -16 9 -13 36 6 57 23 25 31 23 69 -19z m-170 -283 c8 0
20 -11 26 -25 9 -19 16 -23 35 -19 14 4 23 2 23 -5 0 -6 -11 -11 -25 -11 -16
0 -25 -6 -25 -15 0 -8 5 -15 11 -15 6 0 27 -7 45 -16 l35 -17 -42 -18 c-22
-11 -47 -19 -55 -19 -26 0 -62 23 -73 46 -12 28 -29 31 -38 7 -4 -11 3 -23 20
-37 15 -12 27 -26 27 -31 1 -6 15 -19 33 -30 45 -29 46 -56 2 -89 -20 -16 -37
-26 -38 -25 -1 2 -8 13 -15 24 -7 11 -19 36 -27 55 -9 19 -20 42 -25 50 -20
30 -50 95 -50 110 0 19 110 92 128 85 8 -3 20 -5 28 -5z m-2475 -1021 c16 -8
18 -13 8 -25 -16 -20 -74 -18 -95 4 -19 18 -18 18 59 31 5 0 17 -4 28 -10z
m2972 -3 c27 -21 21 -32 -44 -75 -94 -63 -138 -51 -87 22 43 64 91 83 131 53z
m-3894 -370 c26 -31 -17 -151 -44 -124 -11 10 -12 112 -2 126 13 16 32 15 46
-2z m1361 -232 c13 -34 13 -34 -14 -34 -13 0 -27 -7 -30 -16 -6 -15 -8 -15
-26 1 -17 15 -24 16 -46 6 -15 -6 -29 -9 -33 -5 -3 4 0 9 7 11 6 3 12 13 12
22 0 27 12 33 31 15 17 -15 20 -15 46 5 36 27 42 26 53 -5z m730 -151 c0 -3
-8 -15 -17 -25 -13 -15 -14 -21 -4 -31 10 -9 16 -7 31 11 10 12 20 27 22 33 7
20 48 0 48 -23 0 -17 -4 -19 -26 -14 -25 7 -26 5 -21 -23 7 -35 -6 -39 -62
-20 -35 12 -41 40 -15 77 14 20 44 31 44 15z m-468 -374 c-3 -51 -7 -56 -27
-39 -18 15 -19 43 -4 71 17 33 34 16 31 -32z m18 -89 c0 -15 -7 -20 -25 -20
-17 0 -25 -6 -25 -17 0 -16 -1 -16 -17 1 -17 16 -17 18 6 37 31 25 61 25 61
-1z m785 -1446 c0 -16 8 -40 16 -54 9 -14 20 -38 23 -53 6 -25 4 -28 -16 -25
-16 2 -23 10 -23 26 0 20 -40 52 -66 52 -19 0 -8 -27 16 -38 31 -14 32 -35 2
-59 -12 -10 -21 -25 -19 -33 4 -21 -35 -61 -52 -54 -25 10 -28 36 -6 56 17 16
19 27 14 73 -6 49 -4 57 17 74 13 11 31 20 40 21 22 0 38 20 32 38 -4 10 -1
13 8 10 8 -3 14 -18 14 -34z m-150 -104 c-8 -64 -13 -76 -28 -61 -16 16 -34
13 -41 -6 -5 -11 1 -23 16 -34 18 -14 20 -20 10 -31 -6 -8 -9 -18 -5 -22 4 -4
0 -4 -10 0 -10 3 -17 17 -17 30 0 17 -8 27 -25 34 -27 10 -31 29 -15 60 8 15
17 18 41 13 30 -6 31 -5 25 24 -4 16 -2 42 4 58 10 27 11 27 31 9 18 -16 20
-26 14 -74z M3480 4566 c-4 -11 -17 -30 -29 -40 -24 -22 -28 -54 -6 -62 23 -9 18
-31 -7 -30 -19 1 -23 -5 -26 -36 -3 -35 -1 -38 22 -38 15 0 27 -7 31 -19 3
-11 12 -22 20 -25 10 -3 15 -20 15 -46 0 -35 3 -40 23 -40 21 -1 21 -1 2 -12
-31 -18 -35 -28 -35 -100 0 -57 3 -69 20 -78 11 -6 22 -21 26 -35 3 -13 14
-31 25 -41 10 -9 19 -23 19 -30 0 -7 24 -20 53 -29 28 -10 59 -24 68 -31 8 -8
20 -14 26 -14 6 0 16 -6 22 -14 6 -7 30 -16 53 -20 22 -4 55 -18 71 -32 21
-18 37 -24 54 -19 13 3 32 1 42 -5 14 -7 25 -5 44 10 19 15 38 19 87 17 48 -1
64 2 74 15 6 9 23 18 36 20 42 6 35 27 -10 26 -22 0 -43 2 -46 4 -2 3 -2 23 2
46 6 37 9 40 43 44 20 3 70 -2 111 -9 69 -14 75 -13 87 3 7 10 13 27 13 37 0
16 5 18 29 14 28 -6 29 -4 36 41 4 30 3 48 -4 50 -16 5 -101 90 -101 100 0 9
-33 42 -42 42 -11 0 -15 -49 -4 -60 8 -8 7 -13 -2 -19 -7 -4 -11 -22 -10 -42
3 -33 2 -34 -38 -35 -56 -2 -119 33 -120 66 0 14 -3 32 -6 40 -4 8 -9 36 -12
62 -5 46 -5 47 34 69 22 13 40 28 40 35 0 20 114 10 118 -11 3 -12 11 -15 31
-10 15 3 41 1 56 -5 25 -9 32 -8 42 6 16 22 -2 47 -27 39 -12 -4 -19 1 -23 14
-3 13 -29 31 -71 51 -37 16 -70 30 -74 30 -4 0 -31 18 -60 41 l-54 40 -146 4
c-82 2 -152 -1 -158 -6 -17 -14 -125 1 -131 17 -3 9 -20 14 -43 14 -22 0 -42
5 -45 10 -4 6 -36 10 -71 9 -57 -1 -67 -4 -74 -23z m681 -516 c28 -16 23 -44
-10 -57 -35 -13 -41 -9 -41 27 0 41 14 49 51 30z M3835 3391 c-7 -12 12 -24 25 -16 6 3 10 0 10 -8 0 -8 7 -20 15 -27
11 -9 18 -9 35 3 23 16 18 23 -29 43 -39 16 -48 17 -56 5z M2212 3029 c-12 -19 -16 -59 -7 -59 17 0 55 35 55 50 0 25 -34 31
-48 9z M3225 2781 c-33 -7 -38 -19 -14 -34 12 -7 27 -6 55 5 72 29 45 48
-41 29z M4392 1048 c-18 -18 -15 -36 8 -48 24 -13 18 -30 -11 -30 -24 0 -25
-16 -1 -29 29 -15 41 1 46 62 3 48 1 57 -13 57 -9 0 -22 -5 -29 -12z M4320 890 c-6 -10 -13 -40 -16 -65 -4 -25 -11 -45 -15 -45 -11 0 -12
-37 -1 -44 14 -8 62 61 56 79 -4 9 -1 27 6 40 13 25 8 55 -9 55 -6 0 -15 -9
-21 -20z M3873 528 c-29 -32 -53 -83 -53 -112 0 -14 -4 -28 -10 -31 -5 -3 -10
-30 -10 -58 0 -29 -5 -70 -12 -92 -6 -22 -11 -56 -12 -76 0 -20 -6 -42 -12
-50 -18 -22 -25 -55 -18 -83 l6 -26 133 0 c145 0 165 4 165 29 0 9 6 25 14 36
7 11 15 35 18 52 4 26 0 36 -19 48 -22 15 -23 21 -23 137 0 148 -11 191 -59
224 -45 30 -81 31 -108 2z"/></g>
<g transform="translate(0.000000,600.000000) scale(0.100000,-0.100000)" fill="#0f1c33" stroke="none"><path d="M2305 5971 c-17 -15 -42 -44 -58 -64 -15 -20 -36 -41 -47 -47 -17 -9
-20 -7 -26 16 -4 17 -1 36 10 54 18 31 20 40 8 40 -12 0 -62 -115 -62 -143 0
-44 -12 -46 -245 -51 -93 -2 -183 -7 -200 -10 -87 -21 -203 -105 -239 -176
-20 -37 -56 -188 -49 -205 9 -24 -17 -47 -47 -42 -27 6 -32 0 -61 -86 -7 -20
-23 -47 -35 -58 -23 -21 -31 -20 -111 19 -66 33 -52 -17 16 -55 25 -14 73 -43
106 -63 78 -48 144 -80 167 -80 10 0 18 -4 18 -10 0 -13 -39 -86 -77 -145 -18
-27 -33 -54 -33 -60 0 -20 -40 -94 -55 -103 -24 -13 -30 -74 -11 -108 l15 -29
1 44 c0 55 35 131 60 131 13 0 20 -13 28 -57 6 -32 16 -79 22 -106 10 -42 9
-52 -9 -90 -12 -24 -21 -52 -21 -63 0 -30 -36 -82 -70 -99 -35 -18 -40 -37 -7
-34 12 1 34 -3 50 -9 40 -17 38 -67 -5 -116 -69 -77 -226 -70 -376 18 -13 8
-34 31 -46 51 -18 29 -24 34 -29 21 -16 -42 42 -122 103 -141 13 -4 44 -22 69
-39 25 -18 53 -35 61 -39 8 -4 42 -25 75 -46 82 -52 96 -93 40 -115 -6 -2 -6
-8 1 -16 9 -9 17 -9 33 -1 20 11 21 9 21 -27 0 -28 -7 -45 -25 -62 -29 -27
-32 -67 -9 -112 9 -18 12 -34 7 -39 -11 -11 -109 12 -141 32 -25 16 -40 5 -22
-16 17 -20 96 -55 126 -55 12 0 25 -3 28 -8 2 -4 0 -41 -5 -82 -21 -169 -18
-191 37 -250 46 -50 53 -80 18 -80 -15 0 -16 -2 -2 -17 8 -10 18 -30 22 -45 8
-37 63 -98 87 -98 29 0 22 28 -11 45 -18 9 -30 23 -30 35 0 26 14 25 37 -3 10
-12 30 -30 45 -40 15 -9 30 -28 34 -42 3 -13 17 -31 30 -39 13 -9 28 -33 34
-56 6 -22 16 -40 22 -40 7 0 9 -18 5 -52 l-6 -53 20 45 c17 36 19 56 14 100
-4 30 -7 84 -6 120 0 36 1 86 1 111 0 41 3 47 25 51 13 3 27 2 32 -1 14 -10 7
-77 -11 -116 -16 -32 -16 -38 -3 -53 8 -9 17 -26 19 -37 4 -22 53 -36 85 -24
19 7 21 19 28 139 4 73 10 144 14 158 9 34 -9 90 -31 95 -22 6 -24 37 -3 37
18 0 18 1 4 37 -26 62 -16 294 13 327 4 6 8 29 8 51 0 31 8 53 29 82 19 26 28
48 24 61 -3 13 3 25 17 35 15 10 19 20 14 29 -10 15 -6 55 7 80 7 13 17 16 42
11 31 -6 32 -6 15 14 -19 21 -24 53 -9 53 5 0 11 14 15 31 5 29 9 31 36 26 24
-5 33 -2 46 18 9 14 24 25 34 25 10 0 20 7 24 15 4 11 13 14 31 9 19 -5 25 -2
25 9 0 9 12 28 26 42 22 22 34 26 63 22 22 -2 46 2 63 11 23 14 30 14 61 -1
19 -10 44 -17 56 -17 12 0 21 -5 21 -11 0 -6 -6 -9 -14 -6 -25 10 -25 -3 0
-28 13 -13 38 -25 56 -27 27 -2 34 1 36 19 3 22 27 37 43 27 6 -3 7 -14 4 -24
-7 -22 12 -37 28 -21 9 9 8 14 -3 21 -12 8 -10 10 8 10 14 0 21 -4 16 -11 -3
-6 6 -24 21 -39 25 -26 27 -32 16 -58 -10 -23 -22 -31 -62 -40 -28 -7 -63 -12
-77 -12 -15 0 -47 -9 -71 -20 -24 -11 -52 -20 -63 -20 -11 0 -29 -11 -40 -25
-24 -31 -91 -53 -111 -36 -11 9 -17 8 -27 -4 -19 -22 -35 -18 -63 15 -22 26
-29 29 -51 20 -32 -12 -34 -37 -3 -50 39 -17 56 -35 51 -57 -5 -17 0 -22 31
-27 30 -6 39 -3 54 15 18 22 21 22 62 9 24 -7 50 -18 56 -23 7 -5 31 -7 53 -5
33 3 40 0 40 -14 0 -34 -100 -57 -140 -33 -5 3 -10 -3 -10 -13 0 -27 20 -33
134 -38 l98 -5 -5 27 c-6 34 1 54 18 54 14 0 27 -83 13 -88 -10 -5 -11 -22 0
-22 4 0 19 11 34 24 24 19 43 24 125 30 67 5 104 13 115 23 10 9 34 17 53 19
20 2 52 16 73 32 20 15 49 36 65 45 15 10 27 26 27 35 0 19 34 54 63 65 21 8
22 50 2 67 -22 19 -18 37 10 44 21 5 24 10 18 39 -3 17 -14 47 -25 64 -25 41
-17 82 22 122 24 23 27 31 17 44 -21 26 -68 27 -121 2 l-49 -23 -48 34 c-27
19 -54 34 -60 34 -6 0 -9 7 -5 15 4 11 -2 15 -22 15 -15 0 -43 5 -62 11 -43
13 -253 11 -289 -3 -14 -6 -57 -10 -96 -10 -48 0 -83 -6 -112 -19 -24 -10 -51
-19 -61 -19 -18 0 -142 -119 -142 -137 0 -6 -7 -16 -16 -24 -8 -7 -13 -21 -11
-31 3 -11 0 -18 -9 -18 -7 0 -18 -9 -24 -20 -6 -11 -16 -17 -25 -14 -13 5 -13
9 0 27 13 18 13 23 -1 39 -15 16 -15 21 -1 65 9 26 19 60 22 75 3 15 12 33 20
42 8 8 15 24 15 35 0 11 5 23 10 26 6 3 10 16 10 27 0 12 7 29 15 38 13 15 14
22 3 45 -11 25 -10 29 15 47 15 11 27 28 27 39 0 10 5 19 10 19 6 0 10 14 10
31 0 25 6 33 29 42 18 6 32 21 36 35 4 18 10 22 25 17 17 -6 20 -2 20 29 0 20
5 36 11 36 7 0 22 10 35 23 46 44 64 57 78 57 28 0 46 12 46 31 0 10 18 36 40
58 22 21 40 45 40 53 0 17 33 50 46 47 24 -5 76 16 86 34 10 20 12 19 39 -14
22 -27 30 -32 40 -21 7 7 38 12 69 12 31 0 61 5 67 11 8 8 17 8 31 0 29 -15
57 -14 72 4 15 18 65 12 88 -11 29 -30 43 -13 15 19 -18 20 -17 20 65 13 68
-5 83 -4 88 8 8 22 207 21 229 0 13 -14 16 -12 25 11 5 14 10 41 10 60 0 19 4
37 10 40 5 3 9 20 7 38 -1 24 2 32 17 35 16 4 18 0 12 -32 -6 -33 -5 -36 17
-36 27 0 57 -28 57 -53 0 -25 25 -44 71 -51 23 -4 55 -18 71 -31 21 -18 41
-25 72 -25 30 0 48 -6 61 -20 10 -11 22 -20 27 -20 6 0 22 -9 36 -21 17 -13
34 -18 49 -14 23 5 58 -11 100 -48 20 -18 26 -18 54 -6 18 7 50 12 71 10 21
-1 54 3 73 9 30 10 40 9 75 -11 22 -13 40 -26 40 -31 0 -4 25 -33 57 -64 57
-58 60 -63 83 -188 5 -26 17 -60 26 -74 18 -27 24 -50 49 -182 8 -41 19 -86
25 -100 6 -14 12 -70 13 -125 2 -55 8 -109 14 -120 6 -11 14 -44 18 -73 4 -30
13 -56 21 -59 10 -4 12 -17 7 -49 -4 -34 -2 -48 10 -57 8 -7 18 -33 21 -58 4
-26 13 -55 21 -65 8 -11 15 -32 15 -49 0 -16 7 -39 15 -49 8 -11 15 -26 15
-34 0 -7 12 -39 26 -70 15 -31 28 -75 29 -97 1 -22 8 -53 14 -70 8 -18 12 -76
11 -150 -2 -174 -3 -167 19 -160 22 7 41 -19 41 -54 0 -28 24 -27 43 2 22 33
31 14 18 -37 -15 -62 -14 -111 4 -126 12 -10 18 -8 34 11 18 22 20 23 27 5 12
-32 -8 -91 -33 -94 -12 -2 -25 -13 -29 -25 -3 -12 -13 -30 -21 -39 -9 -10 -13
-24 -10 -33 8 -20 43 -19 59 1 7 9 25 28 41 42 15 15 27 31 27 37 0 7 12 22
26 36 14 13 35 40 46 61 11 20 29 39 39 41 10 3 26 22 36 42 l18 37 -27 20
c-26 19 -27 20 -11 44 14 23 14 26 -2 44 -15 17 -16 22 -4 36 8 10 13 25 11
35 -2 10 6 23 17 29 27 14 27 36 0 43 -18 5 -19 8 -9 27 7 14 9 39 5 67 -7 49
5 73 36 73 16 0 19 8 19 56 0 47 5 62 30 94 48 61 31 111 -20 60 -11 -11 -23
-20 -27 -20 -3 0 -14 -7 -23 -15 -10 -9 -40 -18 -69 -22 -61 -7 -65 4 -25 62
33 49 47 85 33 85 -5 0 -17 16 -25 37 -16 37 -50 72 -71 73 -19 0 -16 40 2 40
9 0 18 -6 20 -12 3 -7 19 -14 35 -15 27 -2 30 1 30 27 0 27 22 60 40 60 17 0
47 121 52 218 3 48 1 55 -23 69 -26 16 -28 15 -61 -18 -19 -19 -37 -43 -41
-53 -8 -20 -31 -17 -35 5 -1 8 8 19 20 24 12 6 29 23 38 38 14 26 14 29 -6 45
-12 9 -30 22 -40 28 -17 10 -17 15 -6 34 12 19 11 24 -5 36 -17 13 -17 14 4
20 21 6 36 32 47 87 4 15 12 27 20 27 22 0 39 51 46 145 8 87 7 92 -21 142
-16 29 -29 59 -29 67 0 7 -7 19 -15 26 -13 11 -15 7 -15 -23 0 -20 5 -39 10
-42 15 -9 0 -118 -18 -131 -12 -8 -13 -17 -5 -40 l11 -29 7 30 c11 48 14 55
23 55 12 0 32 -46 32 -74 0 -30 -28 -86 -46 -93 -8 -3 -23 2 -34 12 -15 13
-17 22 -9 36 7 15 6 19 -5 19 -8 0 -18 -5 -22 -11 -4 -7 -41 -10 -108 -8
l-101 4 -3 -27 c-2 -16 -7 -28 -12 -28 -4 0 -6 -17 -3 -38 5 -36 3 -40 -26
-51 -16 -7 -36 -19 -42 -27 -16 -20 -28 -17 -39 9 -6 12 -14 29 -19 37 -34 58
-129 259 -124 264 3 3 14 1 25 -5 31 -17 84 7 125 57 21 24 43 44 50 44 33 0
38 85 7 111 -8 6 -14 22 -14 34 0 12 -7 40 -17 61 -9 22 -19 55 -22 74 -6 31
-10 35 -35 32 -15 -2 -34 2 -42 8 -10 9 -21 9 -44 -1 -37 -17 -38 -32 -5 -47
32 -15 32 -30 1 -38 -36 -9 -95 12 -118 41 -18 23 -22 25 -30 11 -8 -15 -12
-15 -39 0 -22 11 -28 20 -24 33 4 13 -1 20 -15 24 -26 7 -26 27 0 34 25 7 26
39 1 52 -21 12 -31 5 -31 -19 0 -44 -169 16 -178 63 -4 20 28 23 47 5 10 -11
16 -8 31 12 10 13 21 36 24 50 2 14 8 37 11 52 6 21 3 27 -14 33 -23 7 -81
-30 -81 -52 0 -8 -10 -27 -22 -43 -19 -26 -28 -30 -69 -30 -70 0 -130 57 -99
95 10 12 9 15 -4 15 -10 0 -23 15 -32 36 -9 22 -25 39 -42 45 -15 5 -33 18
-39 28 -10 16 -8 19 18 25 34 6 38 22 8 31 -16 5 -19 12 -14 34 4 20 0 32 -15
46 -11 10 -20 24 -20 32 0 23 28 14 50 -17 12 -16 26 -30 31 -30 6 0 26 -12
44 -26 30 -22 33 -29 24 -50 -5 -14 -9 -26 -9 -27 0 -1 20 -2 45 -2 35 0 48 5
60 23 9 12 23 22 31 22 23 0 27 26 8 58 -16 29 -14 62 5 62 5 0 17 -17 26 -37
32 -67 56 -93 87 -93 19 0 28 5 28 16 0 12 -7 15 -30 12 -25 -4 -31 0 -40 25
-11 34 -1 62 11 29 5 -12 13 -22 19 -22 36 0 13 105 -35 160 -17 19 -39 47
-48 63 -13 19 -26 27 -47 27 -17 0 -30 -5 -30 -12 0 -9 -3 -9 -12 0 -14 14
-48 16 -48 4 0 -5 -21 -5 -47 -1 -27 4 -415 8 -863 8 l-816 1 -29 -29z m445
-15 c0 -8 -4 -17 -9 -20 -5 -4 -12 -23 -16 -44 -6 -36 -8 -38 -46 -39 -29 -2
-39 2 -39 13 0 21 49 84 66 84 8 0 14 5 14 10 0 6 7 10 15 10 8 0 15 -6 15
-14z m1434 -19 c15 -19 26 -39 26 -45 0 -6 6 -17 14 -25 19 -18 24 -49 10 -54
-6 -2 -17 10 -24 26 -7 17 -20 33 -29 36 -14 5 -51 69 -51 88 0 19 32 3 54
-26z m-556 -3 c22 -15 31 -54 13 -54 -5 0 -15 -2 -23 -5 -8 -3 -18 6 -25 25
-6 16 -18 30 -27 30 -9 0 -16 5 -16 10 0 16 53 12 78 -6z m201 -19 c53 -61 33
-93 -33 -54 -45 26 -62 54 -45 75 19 23 45 16 78 -21z m-281 -23 c2 -7 10 -19
18 -26 8 -8 14 -21 14 -30 0 -25 63 -66 103 -66 38 0 53 -14 49 -43 -2 -10 2
-24 8 -32 6 -8 7 -16 2 -19 -6 -3 -15 1 -22 9 -14 17 -36 20 -45 5 -3 -5 4
-26 15 -47 l20 -38 -31 -3 c-38 -4 -49 5 -58 50 -5 22 -16 37 -33 46 -15 7
-30 21 -33 32 -3 10 -15 22 -26 25 -22 7 -24 16 -6 34 19 19 -20 44 -60 37
-56 -8 -116 63 -65 78 32 9 146 0 150 -12z m-1754 -158 c23 -22 20 -33 -14
-52 -16 -9 -30 -20 -30 -23 0 -3 -11 -18 -25 -33 -26 -28 -32 -46 -15 -46 6 0
15 11 20 25 10 26 66 55 105 55 34 0 92 -27 99 -46 10 -25 -30 -80 -88 -123
-28 -21 -58 -46 -66 -56 -8 -9 -25 -21 -39 -27 -21 -7 -28 -5 -42 13 -16 21
-17 20 -16 -44 1 -72 -12 -97 -49 -97 -13 0 -53 -10 -90 -22 -48 -16 -71 -19
-83 -11 -18 11 -28 53 -13 53 5 0 4 16 -4 38 -19 53 -18 62 18 169 27 84 38
102 82 144 28 27 64 51 81 55 16 3 35 9 40 13 15 9 78 29 97 30 9 1 24 -6 32
-15z m-412 -489 c3 -33 4 -62 2 -64 -2 -2 -19 4 -38 13 -32 15 -35 20 -33 54
3 48 14 64 40 60 19 -3 23 -12 29 -63z m3344 -156 c19 -11 34 -24 34 -29 0
-14 -60 -22 -88 -12 -15 6 -39 13 -54 16 -41 9 -34 23 15 34 60 14 56 14 93
-9z m-3301 -1649 c8 -25 -11 -111 -26 -121 -26 -16 -48 -10 -55 17 -9 37 1
125 16 134 17 11 58 -8 65 -30z m3769 11 c12 -19 -7 -41 -34 -41 -34 0 -46 15
-30 35 14 17 56 20 64 6z M4300 5994 c0 -3 11 -30 25 -60 14 -30 25 -65 25 -77 0 -12 7 -33 15
-47 8 -14 19 -35 24 -47 6 -13 16 -23 22 -23 13 0 4 62 -16 100 -7 14 -18 43
-24 65 -24 77 -33 95 -52 95 -11 0 -19 -3 -19 -6z M4735 5310 c-11 -18 96 -107 115 -95 19 12 10 30 -36 68 -48 38 -68
45 -79 27z M3925 4521 c-3 -6 -58 -9 -123 -8 -121 2 -125 1 -171 -44 -26 -25
-27 -30 -25 -128 1 -91 -1 -101 -17 -101 -13 0 -17 -7 -16 -27 2 -24 -2 -28
-20 -26 -13 2 -23 -2 -23 -7 0 -6 7 -10 15 -10 21 0 19 -27 -5 -52 -25 -27
-26 -46 -2 -44 13 1 18 -8 20 -37 2 -29 14 -49 46 -82 24 -26 52 -45 64 -45
11 0 24 -5 27 -10 8 -13 58 -36 145 -66 59 -21 66 -22 82 -7 24 22 23 68 -3
92 -23 21 -10 38 18 22 17 -9 54 -14 81 -12 6 1 12 8 12 16 0 17 25 20 35 5 9
-15 61 -12 75 5 10 13 9 15 -8 15 -43 0 -55 71 -17 96 18 12 26 11 55 -5 24
-12 36 -27 38 -44 4 -35 73 -54 71 -19 -1 32 -109 98 -210 127 -74 21 -104 52
-96 99 7 42 -9 57 -29 27 -8 -12 -22 -21 -30 -21 -17 0 -19 27 -1 33 9 3 7 10
-6 25 -18 20 -18 21 2 31 11 6 33 11 50 11 16 0 37 7 46 16 11 12 25 14 50 10
27 -5 35 -3 39 11 10 31 87 56 101 33 3 -5 20 -10 38 -10 l32 0 -28 25 c-15
14 -27 32 -27 40 0 8 -5 15 -11 15 -6 0 -18 9 -27 20 -14 17 -31 21 -99 23
-45 1 -85 6 -89 10 -11 10 -52 9 -59 -2z M2122 4164 c-31 -21 -30 -64 1 -64 13 0 32 -7 43 -15 28 -21 39 -18
55 13 22 45 23 48 2 30 -16 -15 -22 -16 -38 -4 -12 9 -15 15 -7 20 7 4 12 14
12 22 0 19 -40 18 -68 -2z M5323 3855 c-7 -20 24 -55 43 -48 19 7 18 49 -2 57 -25 9 -34 7 -41
-9z M2936 3479 c-13 -10 -38 -19 -55 -19 -43 0 -80 -20 -97 -52 -12 -23
-19 -27 -39 -22 -20 5 -24 3 -19 -9 3 -9 12 -18 20 -21 8 -3 14 -12 14 -19 0
-8 14 -17 31 -21 18 -3 47 -15 65 -27 28 -17 34 -27 34 -54 0 -55 -16 -85 -46
-85 -14 0 -45 -14 -69 -31 -34 -24 -55 -32 -97 -33 -29 -1 -63 -7 -74 -14 -24
-12 -34 -5 -47 31 -9 23 -30 11 -22 -12 4 -12 -7 -27 -35 -50 -34 -27 -40 -29
-40 -13 0 27 -23 54 -41 47 -22 -8 -54 -75 -51 -105 2 -14 9 -29 16 -35 20
-16 26 -43 10 -49 -21 -8 -18 -82 7 -133 17 -36 19 -48 10 -75 -9 -26 -8 -35
6 -52 35 -42 45 -47 62 -32 9 7 26 17 39 21 12 3 29 20 38 36 14 28 19 30 72
30 31 0 72 -1 90 -1 17 0 42 0 55 -1 12 0 48 0 80 1 l58 3 -22 23 c-13 14 -34
24 -49 24 -31 0 -73 40 -65 61 7 19 88 69 112 69 11 0 23 3 27 7 7 8 13 9 106
20 36 5 70 12 76 15 12 8 6 67 -8 86 -7 8 -7 12 1 12 6 0 11 7 11 15 0 23 66
70 102 71 18 1 65 4 103 8 116 13 139 13 200 1 55 -11 62 -11 87 8 31 23 32
40 1 45 -11 2 -43 25 -72 52 -28 28 -55 50 -60 50 -5 0 -16 11 -25 25 -12 17
-25 25 -46 25 -17 0 -48 11 -70 25 -22 14 -43 25 -48 25 -5 0 -17 9 -27 20
-10 11 -22 20 -27 20 -5 0 -26 13 -46 29 -20 17 -49 33 -65 36 -15 4 -31 15
-36 23 -14 25 -103 26 -135 1z M3402 3455 c-25 -18 -29 -35 -9 -35 8 0 27 -6 43 -14 31 -16 163 -24
183 -12 14 9 14 33 -1 42 -17 11 -85 25 -143 30 -35 3 -57 0 -73 -11z M2523 3225 c-9 -19 -22 -35 -29 -35 -16 0 -26 -28 -19 -51 5 -15 1
-19 -19 -19 -14 0 -26 -4 -26 -10 0 -5 9 -10 19 -10 11 0 23 -4 26 -10 12 -20
27 -10 23 15 -3 14 0 29 7 33 6 4 14 15 18 25 4 10 17 17 32 17 22 0 25 3 19
28 -14 65 -26 69 -51 17z M3874 2988 c19 -98 13 -111 -42 -85 -31 15 -109 14 -124 -1 -14 -14
-1 -32 21 -32 10 0 23 -6 29 -12 18 -22 29 -82 21 -117 l-7 -34 52 7 c29 3 67
13 85 22 41 20 61 12 61 -25 0 -47 10 -61 41 -61 19 0 29 -5 29 -15 0 -26 14
-16 50 37 30 45 36 62 41 132 4 45 3 85 -2 90 -15 16 -10 36 8 36 14 0 14 2
-2 20 -10 11 -27 20 -39 20 -11 0 -30 12 -42 27 l-21 27 -31 -22 c-16 -12 -39
-22 -49 -22 -10 0 -23 -4 -29 -10 -6 -6 -10 0 -9 18 0 21 -5 28 -24 30 -22 3
-23 1 -17 -30z M1793 2613 c-7 -2 -13 -15 -13 -28 0 -20 -7 -25 -55 -36 -46 -10 -61
-10 -94 3 l-40 16 16 -26 c9 -15 26 -38 38 -52 31 -36 65 -98 65 -119 0 -10
-6 -24 -14 -30 -8 -7 -21 -34 -30 -62 -16 -47 -16 -54 1 -111 20 -68 61 -115
124 -144 22 -9 38 -22 36 -28 -3 -10 -110 -67 -209 -110 -181 -80 -441 -223
-536 -297 -26 -19 -85 -62 -132 -93 -47 -32 -110 -82 -140 -110 -30 -29 -91
-83 -135 -122 -44 -38 -114 -101 -155 -140 -107 -102 -140 -129 -180 -144 -64
-25 -122 -59 -161 -95 -21 -19 -39 -38 -39 -41 0 -3 -19 -29 -41 -58 l-41 -51
5 -81 c3 -55 16 -115 37 -180 38 -112 37 -113 -51 -135 l-49 -13 0 -163 0
-163 748 0 c706 0 750 1 765 18 9 10 14 27 11 39 -3 11 1 32 10 45 9 14 17 52
19 87 2 34 9 67 15 73 7 7 12 20 12 30 0 9 6 37 14 60 7 24 21 77 31 118 9 41
23 82 30 90 7 8 16 36 20 62 4 26 13 49 20 52 7 2 19 31 25 63 7 32 23 84 36
115 13 32 24 69 24 83 0 14 11 43 25 65 14 22 25 48 25 58 0 10 4 22 9 27 4 6
13 33 20 60 16 70 66 166 116 219 47 51 60 56 71 24 5 -16 0 -27 -19 -42 -47
-39 -55 -204 -13 -281 9 -16 16 -38 16 -47 0 -10 4 -18 10 -18 5 0 16 -23 25
-52 8 -28 21 -58 28 -67 8 -9 25 -36 38 -61 13 -25 30 -49 37 -53 6 -4 12 -16
12 -26 0 -10 9 -30 20 -44 11 -14 20 -30 20 -36 0 -7 7 -14 15 -17 8 -4 15
-12 15 -20 0 -22 41 -94 59 -103 9 -5 23 -21 31 -36 11 -21 19 -25 39 -20 15
4 27 1 32 -7 10 -15 14 -11 23 25 5 20 3 27 -8 27 -18 0 -35 29 -29 48 4 10
10 10 29 -3 24 -16 44 -13 44 6 0 5 -9 9 -20 9 -11 0 -20 7 -20 15 0 8 -4 15
-10 15 -5 0 -10 10 -9 23 0 12 -2 49 -4 82 -3 33 -1 69 3 80 11 32 1 45 -36
45 -28 0 -35 4 -40 28 -4 15 -18 45 -32 66 -22 35 -23 44 -13 71 15 43 14 53
-8 60 -25 8 -82 109 -88 155 -3 19 -11 49 -17 65 -38 90 -49 169 -37 259 0 5
8 3 16 -4 9 -7 25 -10 41 -6 28 7 54 -7 54 -30 0 -8 -11 -16 -25 -20 -32 -8
-18 -30 26 -39 17 -4 33 -14 36 -22 4 -9 14 -13 28 -9 15 4 28 -2 43 -19 12
-14 33 -25 46 -25 32 0 58 -56 34 -74 -28 -20 -33 -96 -7 -96 5 0 18 9 29 20
17 17 24 18 45 8 24 -11 34 -28 16 -28 -4 0 -8 -13 -7 -30 1 -33 6 -36 23 -19
13 13 38 0 80 -40 12 -12 31 -21 42 -21 22 0 46 34 36 50 -3 6 -3 10 2 10 4 0
17 -19 28 -43 26 -54 84 -89 116 -69 17 11 24 11 45 -3 13 -8 24 -22 24 -30 0
-25 19 -26 41 -4 18 18 25 20 40 11 10 -7 32 -9 50 -5 24 5 35 2 45 -12 9 -12
20 -16 38 -11 18 4 29 1 39 -14 13 -19 14 -19 32 2 l18 22 19 -25 c25 -30 78
-36 78 -8 0 21 -16 34 -25 19 -11 -17 -35 -11 -35 9 0 13 11 23 35 31 42 14
55 7 55 -26 0 -16 5 -24 13 -22 19 7 20 38 1 59 -9 10 -13 19 -8 19 5 0 -2 7
-14 16 -42 29 -19 79 27 55 28 -15 71 2 71 29 0 11 5 20 10 20 15 0 53 -23 66
-39 9 -11 13 -11 19 -2 4 8 1 19 -8 28 -12 12 -13 23 -5 52 17 61 31 68 68 32
32 -30 63 -34 38 -4 -10 12 -9 18 7 29 10 8 25 14 32 14 7 0 10 6 7 14 -6 15
23 36 51 36 9 0 26 12 38 26 20 23 26 24 63 16 60 -13 89 4 89 54 0 37 1 38
45 47 25 5 59 19 75 31 17 13 47 26 67 30 21 4 42 15 48 26 5 10 18 21 29 25
10 3 21 18 24 33 4 19 17 33 41 45 27 13 36 23 36 42 0 18 5 25 20 25 11 0 23
8 27 18 9 25 44 62 59 62 7 0 17 8 23 18 8 13 14 15 28 6 16 -10 18 -27 18
-156 0 -90 4 -154 12 -169 6 -13 28 -60 48 -104 20 -44 56 -109 80 -145 55
-82 102 -191 111 -258 6 -48 13 -58 70 -114 60 -59 64 -66 100 -177 20 -64 43
-123 49 -131 7 -8 16 -26 20 -40 4 -14 14 -33 22 -42 10 -11 13 -26 9 -43 -4
-16 0 -34 10 -50 12 -19 15 -39 12 -77 -4 -32 0 -65 7 -83 63 -148 70 -193 33
-219 -20 -15 22 -16 475 -16 l497 0 0 45 c0 32 -4 45 -14 45 -17 0 -50 48 -51
75 0 16 -8 21 -42 23 -31 2 -44 8 -48 22 -8 24 3 43 19 37 8 -3 12 4 12 17 -1
18 4 21 37 20 40 -1 46 6 22 26 -11 9 -14 23 -9 46 5 30 3 34 -21 40 -23 6
-26 10 -20 33 4 14 9 54 10 88 5 94 -3 97 -206 91 -45 -2 -61 9 -49 31 8 16 5
23 -20 41 -16 11 -27 27 -24 34 3 7 -5 18 -18 24 -21 10 -21 11 11 9 29 -2 37
3 53 29 15 26 16 33 5 48 -13 18 -14 18 -31 0 -27 -26 -50 -7 -54 45 -2 22 1
41 6 41 23 0 19 41 -5 60 -17 13 -24 26 -20 40 3 10 -1 24 -9 31 -11 9 -14 9
-14 0 0 -23 -31 -23 -55 -1 -22 21 -25 21 -40 6 -23 -23 -41 -9 -19 15 16 18
16 20 -1 39 -14 15 -15 23 -6 33 13 16 5 27 -21 27 -15 0 -18 5 -13 20 5 15 0
22 -18 29 -34 13 -44 32 -23 43 21 12 5 45 -27 57 -14 5 -22 17 -22 32 0 20
-4 23 -25 21 -21 -4 -23 -2 -10 12 17 22 -3 47 -22 28 -18 -18 -31 -15 -25 7
8 31 -11 51 -51 52 -32 0 -34 1 -14 9 32 13 28 43 -7 57 -19 7 -30 19 -33 34
-2 20 -9 24 -38 25 -50 1 -80 20 -80 49 0 13 -4 27 -10 30 -5 3 -10 17 -10 31
0 17 -5 24 -19 24 -23 0 -37 16 -19 22 8 3 7 8 -3 16 -27 23 -84 58 -119 72
-19 8 -56 28 -83 46 -26 18 -56 36 -67 39 -27 8 -25 43 2 72 19 20 20 27 10
43 -20 33 -14 40 38 40 l50 0 25 57 c14 31 24 71 23 88 -2 35 31 90 61 100 10
3 23 17 29 30 6 14 16 25 21 25 5 0 12 11 15 25 4 14 11 25 16 25 12 0 13 11
1 29 -7 11 -16 10 -47 -9 -25 -16 -50 -23 -76 -21 -21 1 -38 -3 -38 -9 0 -6
-11 -15 -24 -21 -13 -6 -31 -27 -40 -47 -10 -20 -26 -42 -37 -50 -10 -7 -19
-19 -19 -25 0 -7 -13 -39 -30 -72 -16 -33 -30 -65 -30 -71 0 -6 -15 -24 -32
-41 -18 -16 -45 -45 -60 -63 -24 -30 -29 -32 -57 -22 -27 10 -34 8 -51 -10
-11 -12 -22 -30 -26 -40 -3 -10 -10 -18 -15 -18 -6 0 -15 -13 -20 -30 -12 -34
-38 -40 -46 -10 -3 11 -12 20 -19 20 -8 0 -14 -9 -14 -20 0 -13 -7 -20 -18
-20 -20 0 -65 -44 -76 -75 -7 -19 -8 -19 -25 3 -13 18 -23 22 -42 17 -32 -8
-58 17 -40 39 6 8 11 18 9 22 -1 5 12 24 30 43 22 22 30 37 23 44 -14 14 -42
1 -35 -18 7 -18 -26 -21 -58 -4 -15 8 -18 17 -13 36 5 20 2 24 -12 21 -10 -2
-19 -13 -21 -24 -4 -26 -69 -64 -110 -64 -31 0 -46 -18 -36 -45 4 -8 1 -22 -6
-30 -10 -13 -17 -12 -49 5 -29 14 -50 17 -98 13 -53 -5 -60 -8 -56 -24 4 -12
-1 -21 -13 -24 -11 -3 -36 -15 -57 -26 -43 -23 -61 -17 -54 18 4 19 -1 27 -21
34 -14 5 -32 7 -40 4 -8 -3 -23 2 -33 11 -15 14 -25 14 -74 4 -53 -11 -56 -10
-74 12 l-19 23 -19 -32 c-22 -41 -28 -41 -42 -3 -13 38 -18 38 -35 -4 -11 -27
-21 -34 -52 -39 -28 -5 -43 -2 -56 10 -16 14 -23 14 -57 3 -43 -14 -61 -8 -61
20 0 26 -15 33 -30 15 -7 -8 -18 -15 -24 -15 -16 0 -37 37 -30 55 6 14 -5 19
-33 16 -7 -1 -28 5 -47 13 -34 14 -37 14 -46 -5 -18 -32 -40 -24 -38 15 2 44
-25 86 -49 80 -11 -3 -28 5 -42 20 -21 22 -22 26 -7 26 28 0 17 55 -11 56 -12
1 -44 18 -73 39 -39 29 -48 40 -40 50 9 10 6 16 -11 25 -41 23 -70 63 -64 93
5 31 -5 34 -40 11 -29 -19 -65 -4 -65 26 0 10 -5 22 -10 25 -7 4 -10 -9 -8
-37 3 -41 2 -43 -27 -46 -16 -2 -38 -11 -49 -20 -10 -10 -26 -16 -36 -14 -11
2 -23 -6 -30 -17 -12 -23 -40 -27 -57 -10 -8 8 -16 4 -28 -14 -19 -30 -55 -26
-55 7 0 11 -7 34 -15 50 -17 33 -19 50 -5 41 25 -15 7 17 -21 37 -34 25 -59
66 -59 96 0 11 -7 26 -16 33 -12 10 -15 24 -11 60 7 56 -6 76 -40 62z m3339
-1755 c8 -13 20 -40 27 -60 7 -21 21 -40 32 -43 11 -4 19 -15 19 -29 0 -13 7
-29 15 -36 8 -7 15 -20 15 -29 -1 -14 -2 -14 -11 2 -5 9 -14 17 -19 17 -15 0
2 -41 30 -69 29 -29 50 -100 50 -172 0 -61 -14 -79 -61 -79 -47 0 -57 16 -41
68 9 30 9 37 -6 48 -13 9 -14 15 -4 27 12 14 7 47 -8 47 -4 0 -11 21 -15 46
-3 26 -15 53 -26 62 -10 9 -19 26 -19 38 0 12 -7 24 -15 28 -23 8 -19 46 5 46
11 0 20 4 20 9 0 14 -28 33 -40 26 -13 -8 -13 16 0 49 12 32 33 33 52 4z m694
-358 c0 -19 3 -47 7 -62 8 -32 -6 -37 -37 -13 -12 9 -17 21 -13 36 4 15 0 23
-14 26 -27 7 -24 41 4 46 43 9 52 3 53 -33z m-585 -202 c1 -7 3 -20 4 -28 1
-8 3 -21 4 -27 0 -7 17 -19 36 -27 21 -9 33 -20 30 -28 -7 -17 -63 -17 -74 1
-7 11 -10 9 -13 -10 -7 -53 -23 -20 -26 54 -2 71 -1 77 18 77 11 0 21 -6 21
-12z m59 -153 c25 -13 29 -21 28 -51 -1 -19 -5 -37 -10 -40 -4 -3 -8 0 -8 5 0
6 -9 11 -20 11 -17 0 -19 -5 -14 -25 3 -14 2 -25 -4 -25 -16 0 -34 28 -26 42
4 7 8 22 9 33 4 75 2 72 45 50z M3118 2563 c-29 -12 -38 -21 -38 -39 0 -22 -2 -23 -25 -12 -20 9 -28
9 -38 -1 -9 -10 -5 -19 23 -42 38 -32 65 -37 74 -14 7 19 76 21 77 3 0 -7 4
-3 9 10 10 25 49 30 96 12 24 -9 30 -7 60 24 19 19 34 40 34 46 0 5 -17 10
-39 10 -30 0 -42 -5 -55 -25 -20 -31 -36 -32 -36 -4 0 18 -5 21 -30 17 -21 -3
-35 1 -47 14 -19 21 -16 21 -65 1z M2296 1373 c-8 -20 1 -33 22 -33 10 0 27 -7 38 -15 21 -14 34 -11 34
7 0 5 -13 14 -30 19 -16 6 -30 15 -30 19 0 16 -28 18 -34 3z M4180 1180 c-6 -11 -15 -19 -21 -17 -6 1 -16 -7 -22 -17 -7 -11 -20
-28 -30 -38 -19 -20 -19 -39 0 -45 19 -7 123 103 123 129 0 17 -40 7 -50 -12z M4037 1038 c-6 -24 -39 -68 -51 -68 -5 0 -101 -55 -115 -67 -2 -2 2
-15 9 -29 12 -22 12 -27 0 -34 -23 -14 -31 -12 -37 10 -9 34 -23 22 -23 -19 0
-27 -8 -49 -25 -69 -27 -32 -32 -52 -13 -52 6 0 9 -2 6 -5 -10 -10 -58 21 -58
38 0 9 -7 17 -15 17 -18 0 -19 -5 -4 -32 10 -18 8 -24 -9 -39 l-21 -16 22 -21
c17 -15 34 -19 71 -18 44 2 52 7 90 47 60 67 117 149 123 181 3 15 25 46 49
70 48 47 53 70 25 107 l-18 24 -6 -25z M5607 915 c-15 -14 -27 -32 -27 -40 0 -22 31 -18 37 4 7 26 35 36 49
17 6 -9 14 -13 18 -9 6 6 -32 53 -43 53 -4 0 -19 -11 -34 -25z M2440 666 c0 -12 -3 -32 -7 -44 -5 -21 -3 -23 18 -20 20 2 23 8 21
31 -2 17 3 29 13 33 25 10 17 21 -15 21 -24 0 -30 -5 -30 -21z M3657 589 c-4 -13 0 -22 11 -26 9 -3 25 -13 34 -21 16 -13 18 -13 24
2 4 10 1 28 -6 42 -17 30 -55 33 -63 3z M3871 511 c-26 -36 -52 -132 -51 -191 0 -25 -4 -74 -10 -109 -10 -61
-9 -67 15 -103 29 -44 30 -46 10 -68 -38 -42 59 -50 106 -9 24 21 49 25 49 9
0 -5 9 -10 19 -10 12 0 27 15 40 40 26 51 27 76 1 83 -18 5 -20 14 -21 89 0
45 -4 118 -7 160 -6 67 -11 81 -37 108 -39 41 -85 41 -114 1z M1943 402 c-37 -10 -69 -30 -110 -68 -32 -30 -60 -54 -64 -54 -15 0
-89 -91 -89 -110 0 -13 -7 -20 -19 -20 -26 0 -48 -27 -33 -42 8 -8 2 -22 -24
-51 -18 -22 -34 -44 -34 -49 0 -4 176 -8 391 -8 l392 0 -35 33 c-39 37 -115
152 -143 217 -11 25 -36 70 -57 101 -48 73 -75 81 -175 51z"/></g>
</g>
<circle cx="300" cy="300" r="296" fill="none" stroke="#0b5cff" stroke-width="10"/>
</svg>